<svg version="1.0" xmlns="http://www.w3.org/2000/svg" width="1408px" height="786px" viewBox="0 0 1408 786" preserveAspectRatio="xMidYMid meet">
  <path d="M1367.8 447.5 c-1.2 -1.2 -0.7 -1.9 1.5 -2 1.3 -0.1 1.8 0.1 1.3 0.5 -0.6 0.4 -1.3 1.1 -1.6 1.5 -0.3 0.4 -0.9 0.4 -1.2 0z"/>
  <path d="M1406 298.5 c0 -1.1 -0.8 -1.7 -2.3 -1.8 -7.3 -0.2 -9 -1.9 -1.9 -1.9 5.5 0 7.8 1.9 5.3 4.4 -0.8 0.8 -1.1 0.7 -1.1 -0.6z"/>
  <path d="M835.3 0.3 c0.9 -0.2 2.6 -0.2 3.6 0 0.9 0.3 0.1 0.5 -1.8 0.5 -1.9 0 -2.8 -0.2 -1.7 -0.5z"/>
  <path d="M1252.3 0.3 c1.2 -0.2 3.3 -0.2 4.6 0 1.2 0.2 0.2 0.4 -2.4 0.4 -2.6 0 -3.6 -0.2 -2.3 -0.4z"/>

 <g fill="#0ddb0d">
  <path d="M636.6 355.9 c1.3 -1.8 7 -8.3 12.7 -14.2 37.1 -39.2 72.4 -76.2 84.8 -88.9 32.4 -33.4 34.4 -35.5 34.4 -38.8 0 -10.5 -19.4 -16.2 -41.1 -12 -9.3 1.8 -29.5 7.9 -39.7 12 -7.9 3.2 -16.4 5.3 -16.4 4.1 0 -2.1 11.2 -10.6 20 -15.1 24.6 -12.6 37.9 -16.7 56.3 -17.4 14.7 -0.6 22.1 0.6 31.6 5.4 11.5 5.7 15.9 12.7 16 25.3 0 13.6 1 12.5 -43.4 49.6 -41.7 35.1 -58.6 49.2 -78.8 66.5 -30.1 25.6 -31.6 26.8 -35.3 26.8 l-3.3 0 2.3 -3.3z"/>
  <path d="M602.2 306.4 c-37.6 -2.3 -54.1 -3.6 -56.3 -4.2 -1.8 -0.6 13.9 -1.8 71.9 -5.5 10.8 -0.6 20 -1 20.3 -0.7 0.3 0.3 -0.6 3.2 -2 6.3 l-2.6 5.7 -4.9 -0.1 c-2.7 -0.1 -14.5 -0.7 -26.4 -1.5z"/>
  <path d="M595 282.9 c-14 -0.7 -45.1 -2.1 -69.1 -3.1 -23.9 -1 -43.7 -1.9 -43.9 -2.1 -1.1 -0.9 2.3 -1.2 30.6 -2.4 16.6 -0.6 45.4 -1.8 64 -2.7 65.7 -3 74.7 -3.3 75.5 -2.6 0.4 0.4 -0.7 3.7 -2.6 7.3 l-3.5 6.5 -12.7 0.1 c-7.1 0.1 -24.3 -0.4 -38.4 -1.1z"/>
  <path d="M852.3 248.2 c-5.6 -2.3 -19.7 -11.1 -20.9 -12.9 -0.3 -0.5 -0.1 -1.8 0.4 -2.9 0.6 -1.1 1.3 -6.1 1.7 -11.3 0.4 -5.2 1.1 -9.4 1.6 -9.4 0.5 0 4.6 3.4 9.1 7.5 4.5 4 10.7 9 13.9 10.9 5.5 3.4 6.2 3.6 15.1 3.6 8.7 0 9.8 -0.2 17.1 -3.8 8.9 -4.4 25.6 -16.2 33.1 -23.2 2.9 -2.8 6.5 -5.9 8.4 -7.2 l3.3 -2.3 -1.5 3.9 c-3.9 9.3 -6.4 12.7 -17.7 23.9 -12.7 12.6 -21.7 19.3 -30.8 23.1 -8.2 3.4 -24.7 3.4 -32.8 -0.1z"/>
 </g>
 <g fill="#000000">
  <path d="M601.5 629.3 c-7.3 -1.1 -10.8 -3 -14.8 -7.6 -4.7 -5.3 -5.9 -9.9 -5.8 -23.1 0 -16.3 3 -22.5 13 -27.8 4 -2.1 5.7 -2.4 27.4 -2.7 l23.1 -0.4 0.6 3.8 c0.3 2.1 0.4 5.1 0 6.7 l-0.5 3 -20.2 0.3 c-22.1 0.3 -24.6 0.9 -26.8 6.8 -1.5 3.9 -1.4 17.9 0.1 21.7 2.3 5.5 4.9 6.1 26.9 6.1 22.1 0 21.2 -0.3 21.2 7 0 6.7 0 6.5 -20.1 7 -10.1 0.1 -21 -0.1 -24.1 -0.6z"/>
  <path d="M659.5 629 c-0.3 -0.7 -0.4 -14.6 -0.3 -30.9 l0.3 -29.7 7.2 0 7.2 0 0.3 30.1 c0.2 23.4 -0.1 30.3 -1 31 -2.1 1.3 -13.1 1 -13.6 -0.5z"/>
  <path d="M713 629.6 c-1.6 -0.4 -1.8 -2.7 -2 -24.1 l-0.3 -23.7 -12.3 -0.5 -12.3 -0.5 0 -6.1 0 -6.1 32.2 0 32.2 0 0 6.1 0 6.1 -12.3 0.5 -12.3 0.5 -0.3 23.5 c-0.2 17.2 -0.6 23.6 -1.5 24.3 -1.3 0.8 -8.2 0.9 -11.2 0.1z"/>
  <path d="M786.7 629.6 c-1.6 -0.4 -1.8 -1.7 -1.8 -10.4 0 -8.3 -0.3 -10.5 -1.9 -12.5 -5.1 -6.7 -24.7 -36.2 -24.7 -37.5 0 -1.1 1.6 -1.3 7.5 -1.1 l7.4 0.3 8.7 13 c4.8 7.2 9.2 13.5 9.8 14.1 0.7 0.7 3.9 -3.2 10.6 -13.3 l9.6 -14.3 7.5 0 c4.6 0 7.5 0.4 7.5 1.1 0 0.5 -6.2 9.9 -13.8 20.8 l-13.7 19.7 -0.3 10.1 -0.3 10.1 -5.1 0.1 c-2.8 0 -5.9 -0.1 -6.9 -0.3z"/>
  <path d="M518.1 600 c-17.1 -1.2 -31.5 -2.5 -32.2 -2.8 -1.3 -0.4 0.9 -0.6 43.7 -3.3 13.5 -0.8 25.8 -1.7 27.2 -2 1.5 -0.2 3 -0.1 3.3 0.2 0.4 0.3 -0.5 2.8 -1.9 5.5 -2.3 4.5 -2.9 5 -5.8 4.9 -1.7 -0.1 -17.2 -1.2 -34.2 -2.6z"/>
  <path d="M519.8 579.7 c-15.5 -0.7 -53.7 -2.4 -84.9 -3.6 -31.2 -1.2 -57.7 -2.6 -58.8 -3.1 -1.1 -0.4 16 -1.1 37.9 -1.5 22 -0.4 66.4 -1.3 98.7 -2 32.3 -0.6 58.9 -1.1 59 -1 0.2 0.1 -0.9 3 -2.5 6.4 l-2.9 6.3 -9.2 -0.1 c-5 -0.1 -21.9 -0.7 -37.3 -1.4z"/>
  <path d="M362.7 537.5 c-1.6 -0.3 -3.4 -1 -3.8 -1.6 -0.4 -0.7 -0.8 -5.7 -0.8 -11.2 l0 -10 38.7 -0.1 c44.1 -0.1 49.7 -0.5 52.5 -3.9 4 -4.9 1.6 -17.9 -3.5 -18.9 -1.2 -0.3 -15.9 -0.7 -32.4 -0.9 -24 -0.4 -31.2 -0.8 -35.4 -2.1 -7.9 -2.5 -13.1 -6.8 -16.4 -13.6 -2.7 -5.4 -3 -7 -3 -16.7 0 -14.2 1.6 -19.6 7.7 -25.7 8.6 -8.5 8.9 -8.6 61.4 -8.6 l45.5 0 0.3 10.1 c0.2 6.5 -0.1 10.5 -0.9 11.5 -0.9 1.2 -8.2 1.4 -41.2 1.4 l-40.2 0 -2.1 2.4 c-1.8 1.9 -2.3 3.6 -2.3 8.6 0 10.3 -0.8 10.1 35.5 10.8 37 0.8 42.9 1.9 50.1 10.3 4.9 5.4 5.9 9.8 5.9 24.1 0 15.6 -1.5 20.6 -8.2 26.4 -8.5 7.5 -9.7 7.7 -59.9 8 -24.5 0.1 -45.8 0 -47.6 -0.3z"/>
  <path d="M671.5 537.1 c-8.4 -1.2 -16 -4.2 -21.9 -8.6 -3.6 -2.7 -5.6 -5.3 -8.4 -10.9 -4.9 -10.1 -6 -18.4 -5.5 -41.6 0.4 -15.9 0.9 -20.2 2.7 -25.8 4 -12.3 11.3 -19.5 23.6 -23.6 6.2 -2 9.1 -2.3 37.2 -2.7 18.6 -0.2 33.3 0.1 37.6 0.7 19.3 3.1 28.5 11.1 33.5 28.9 2.6 9.4 2.7 45.5 0.1 54.8 -4.4 15.9 -11.7 23.2 -27.1 27.5 -4.7 1.3 -12 1.7 -35.6 2 -16.3 0.1 -32.5 -0.2 -36.1 -0.7z m62.8 -25.6 c7.9 -4 9 -7.2 9.4 -27.2 0.6 -25.6 -1.8 -32.4 -12.3 -35.6 -6.4 -1.8 -48 -2.3 -54.5 -0.4 -2.3 0.6 -5.7 2.9 -7.8 4.9 -5.1 5.1 -6.3 11.6 -5.8 30.7 0.3 13.4 0.6 15.5 2.9 20.1 4.7 9.4 10 10.7 42.1 10.3 20.1 -0.2 21.4 -0.4 26.1 -2.8z"/>
  <path d="M795.1 537.4 c-2.4 -0.7 -2.6 -1.4 -3.2 -8.4 -0.9 -12.8 0.2 -102.7 1.3 -104.1 1.4 -1.7 85.4 -1.8 94.4 -0.2 11.7 2.1 19 7.6 23.3 17.3 1.5 3.4 2.3 7.6 2.6 15.8 0.9 21.6 -4.1 32.3 -17.5 37.9 l-5.7 2.4 11.4 15.8 c6.2 8.7 12.2 16.9 13.2 18.2 3.9 4.9 3.2 5.2 -12.8 5.2 l-14.7 0 -9.6 -14 c-5.4 -7.8 -11.1 -16.1 -12.6 -18.4 l-2.9 -4.4 -21.3 0 -21.4 0 0 17.2 c0 9.4 -0.4 17.7 -0.8 18.3 -0.9 1.5 -19.9 2.7 -23.7 1.5z m88.2 -62.5 c3 -3.4 3.1 -3.7 2.7 -12.5 -0.3 -8.3 -0.5 -9.3 -3.2 -11.9 l-2.8 -2.9 -30.2 -0.3 -30.2 -0.3 0 16 0 16 30.3 -0.3 30.3 -0.3 3.1 -3.5z"/>
  <path d="M975.8 536.9 c-1.6 -1.2 -1.7 -4.6 -1.7 -45.5 l0 -44.2 -22.7 0 c-12.5 0 -23.4 -0.5 -24.3 -1 -1.9 -1.2 -2.8 -17.1 -1.1 -20.4 l1.2 -2.1 61.1 0.2 61.1 0.3 0 11.3 0 11.3 -23.7 0.3 -23.8 0.2 0 44.5 0 44.5 -2.7 1 c-3.9 1.5 -21.2 1.3 -23.3 -0.3z"/>
  <path d="M498.3 535.3 c-0.6 -1.3 -1 -20.5 -1 -55.3 0 -47.7 0.2 -53.3 1.6 -54.8 1.5 -1.4 6.3 -1.6 48.9 -1.3 53.7 0.4 53.8 0.4 62.8 8.6 8 7.1 9.8 12.8 9.9 30.1 0 10.9 -0.4 14.9 -1.9 19.3 -2.5 7.1 -8.4 13.5 -15.2 16.6 -5.2 2.4 -6.2 2.5 -41.5 3 l-36.2 0.5 -0.1 16.4 c0 9 -0.5 17 -0.9 17.7 -0.6 0.8 -4.4 1.2 -13 1.2 -11.1 0 -12.3 -0.2 -13.3 -1.9z m91.3 -59.3 c2.9 -2.6 3.3 -3.6 3.7 -9.4 0.6 -9.2 -1.1 -14.8 -5.2 -17.3 -3.1 -1.9 -5.3 -2 -33.2 -2 l-30 0 0 15.1 c0 8.4 0.3 15.6 0.7 15.9 0.3 0.4 14.1 0.7 30.7 0.7 l30 0 3.3 -3z"/>
  <path d="M599.5 395.4 c10.6 -12.4 34.5 -36.3 42.5 -42.9 5.1 -4.1 17.6 -14.5 27.7 -23.2 20.2 -17.2 36.6 -31 78.9 -66.5 42.6 -35.6 43.4 -36.5 43.4 -46.6 -0.1 -12.4 -10.1 -22 -27.7 -26.5 -8.3 -2.1 -23.9 -1.4 -34.4 1.5 -14.1 4.1 -33.2 12.7 -49.4 22.5 -4.7 2.8 -8.8 4.9 -9.1 4.6 -0.3 -0.3 3.3 -4.2 8.1 -8.7 30.5 -28.5 60 -41.4 88.2 -38.7 10.2 0.9 16.3 3 29 9.5 7.7 3.9 12.1 7 17.5 12.4 9 8.9 11.2 14.1 10.4 26 -0.6 10 -3.8 16.1 -13 25 -3.7 3.5 -36.6 27.8 -73.3 53.9 -36.5 26.1 -78.9 56.5 -94.1 67.5 -27.8 20.2 -43.7 31.5 -46.6 33.3 -0.8 0.5 0 -0.9 1.9 -3.2z"/>
  <path d="M714.2 363.8 c0 -0.2 12.8 -9 28.4 -19.3 39.7 -26.5 42.7 -28.9 38.6 -31.9 -2.5 -1.8 -6.9 -3.1 -21.8 -6 -6.3 -1.2 -11.8 -2.5 -12 -2.8 -0.6 -0.6 34.2 -25.6 36.3 -26.1 2.9 -0.8 30.7 14 35.9 19 8.8 8.6 9 18.1 0.5 26.2 -11.4 10.7 -40.3 23 -84.8 35.9 -18.9 5.4 -21.2 6 -21.2 5z"/>
  <path d="M651.2 305.7 c0.3 -1.4 4.6 -12.5 9.6 -24.6 l9 -21.8 -52.8 -0.5 -52.7 -0.5 7.2 -4.6 c4 -2.6 9.5 -6 12.3 -7.7 7.1 -4 60.7 -37.1 64.3 -39.7 1.6 -1 3.1 -1.7 3.3 -1.5 0.2 0.2 -4.2 7 -9.8 15 -5.5 8.2 -10.1 15 -10.1 15.3 0 0.3 20.1 0.6 44.5 0.6 24.5 0 44.5 0.2 44.5 0.3 0 0.3 -31.3 32.8 -62.8 65.2 -5.7 5.9 -6.9 6.7 -6.3 4.4z"/>
  <path d="M854.4 264.5 c-7 -1.9 -14.6 -5.4 -22.9 -10.4 -10.3 -6.1 -10.3 -6.1 -6.8 -10.2 1.6 -1.8 4 -5.4 5.2 -7.8 1.2 -2.4 2.4 -4.4 2.5 -4.6 0.2 -0.2 3.2 1.7 6.7 4.3 10.7 8 18.7 11.3 27.8 11.8 9.5 0.4 15.3 -1.3 24.7 -7.4 11.3 -7.3 28.9 -24.4 40.8 -39.6 l2.9 -3.6 -1.6 4.1 c-9.4 23.6 -26.2 46.3 -42.1 56.7 -10.9 7.3 -25.6 9.9 -37.1 6.8z"/>
  <path d="M842.9 202.3 c-11.8 -3.7 -18.6 -17.5 -15 -30.4 2.4 -8.6 13.1 -16.4 22.6 -16.4 6.8 0 14.5 4.2 18.6 10 2.9 4.2 3.3 5.8 3.6 12.7 0.4 7 0.1 8.4 -2.4 13 -5.5 10.1 -16.4 14.4 -27.4 11.1z"/>
 </g>
</svg>