<svg xmlns="http://www.w3.org/2000/svg" xmlns:v="https://svgstorm.com"
viewBox = "0 0 1408 768"
width="1408"
height="768">
<g fill="None" fill-opacity="0.0" stroke="#FEFEFE" stroke-opacity="1.00" stroke-width="0.3"><path d="
M 0.00 768.00 
L 1408.00 768.00
L 1408.00 0.00
L 0.00 0.00
L 0.00 768.00
M 855.00 152.00 
C 883.91 157.99 874.92 204.80 845.33 198.67 C 815.74 192.54 825.37 145.86 855.00 152.00
M 634.00 350.00 
C 641.57 341.14 649.87 333.25 657.75 324.75 C 665.63 316.26 674.17 308.37 681.75 299.75 C 689.34 291.13 698.05 283.47 706.25 275.25 C 714.45 267.03 722.30 258.62 730.30 250.30 C 738.31 241.98 745.56 233.32 754.75 225.75 C 763.94 218.18 774.18 204.52 758.97 199.03 C 743.76 193.54 730.98 196.40 716.93 199.93 C 702.87 203.45 692.17 206.83 679.00 212.00
C 676.75 212.88 675.44 213.58 673.00 214.00
C 672.00 214.17 671.24 215.48 670.00 215.00
C 671.26 213.07 673.00 211.09 675.00 210.00
C 693.60 191.40 713.65 174.38 740.02 169.02 C 766.39 163.67 800.34 168.48 819.25 192.75 C 838.15 217.02 808.67 244.54 787.30 256.30 C 765.93 268.07 746.23 286.94 724.92 299.92 C 703.61 312.90 683.42 330.50 662.25 344.25 C 641.08 357.99 620.28 374.56 599.00 388.00
C 609.36 374.47 623.20 363.22 634.00 350.00
M 933.00 197.00 
C 921.28 218.03 913.87 236.70 892.30 251.30 C 870.73 265.90 841.79 258.29 822.00 243.00
C 824.87 237.27 830.86 232.75 832.00 226.00
C 833.98 219.66 834.41 212.95 834.00 206.00
C 847.60 217.32 864.39 233.97 883.22 227.22 C 902.05 220.47 913.26 209.42 929.00 198.00
C 930.07 195.40 933.51 192.60 936.00 192.00
C 935.73 193.83 934.98 196.30 933.00 197.00
M 631.00 230.00 
C 637.63 229.34 645.16 230.43 651.00 231.00
C 674.00 231.00 697.00 231.00 720.00 231.00
C 697.50 254.33 674.29 277.55 651.00 300.00
C 656.32 284.06 664.05 268.79 670.00 253.00
C 635.16 252.33 599.01 254.33 565.00 252.00
C 593.70 235.01 621.88 216.91 651.00 201.00
C 644.57 210.87 637.25 220.08 631.00 230.00
M 520.00 274.00 
C 516.23 274.36 512.50 274.26 508.00 275.00 C 503.50 275.74 500.44 272.85 497.00 272.00
C 492.00 271.90 487.00 272.10 482.00 272.00
C 479.80 271.96 476.39 272.79 475.00 271.00
C 476.45 269.04 479.80 270.44 482.00 270.00
C 538.94 268.86 594.80 264.08 652.00 264.00
C 650.62 277.77 642.01 279.72 630.00 278.00 C 617.99 276.28 605.05 278.28 593.00 277.00 C 580.95 275.72 569.33 275.09 557.00 275.00 C 544.67 274.91 532.49 273.53 520.00 274.00
M 714.00 356.00 
C 720.58 350.04 731.70 344.85 738.70 339.70 C 745.69 334.54 757.24 327.99 763.23 323.23 C 769.22 318.47 787.17 311.47 780.30 304.70 C 773.42 297.93 755.29 302.32 748.00 296.00
C 758.20 288.04 766.81 283.32 777.23 275.23 C 787.65 267.14 799.42 279.27 810.69 283.31 C 821.97 287.35 832.60 303.48 822.25 313.25 C 811.90 323.01 803.26 326.63 790.92 331.92 C 778.59 337.22 766.84 340.94 753.98 344.98 C 741.11 349.01 727.31 353.14 714.00 356.00
M 610.00 290.00 
C 619.40 290.88 628.44 287.74 638.00 289.00
C 638.74 293.63 634.52 296.72 634.00 301.00
C 605.85 299.94 577.79 298.53 550.00 296.00
C 547.78 295.83 544.40 296.88 543.00 295.00
C 544.45 293.04 547.80 294.44 550.00 294.00
C 563.87 292.74 577.93 292.96 592.00 292.00
C 593.63 291.57 596.43 288.58 600.00 289.00 C 603.58 289.43 606.75 289.69 610.00 290.00
M 395.00 458.00 
C 411.11 459.46 428.56 457.51 444.00 459.00
C 461.90 459.00 477.25 465.27 478.00 485.00
C 478.65 489.55 478.54 494.53 478.00 499.00
C 477.85 506.48 476.05 514.53 469.25 519.25 C 462.45 523.97 453.69 525.41 445.00 525.00 C 436.31 524.59 424.75 525.82 416.00 525.00 C 407.25 524.18 394.11 526.71 386.00 525.00 C 377.89 523.29 363.52 529.69 358.71 523.29 C 353.89 516.90 357.25 500.38 367.00 503.00 C 376.75 505.62 386.63 502.27 396.00 503.00 C 405.37 503.73 417.27 503.51 426.00 503.00 C 434.73 502.49 445.62 506.95 450.30 498.30 C 454.98 489.65 449.53 480.36 440.00 480.00
C 423.42 479.37 405.81 480.53 390.00 479.00
C 380.15 479.00 364.33 474.99 361.08 463.92 C 357.83 452.86 356.01 435.87 362.92 425.92 C 369.84 415.98 382.64 413.33 395.00 414.00 C 407.36 414.67 425.99 412.10 439.00 414.00 C 452.01 415.90 471.80 405.83 474.00 423.00 C 476.20 440.17 458.66 438.44 444.00 437.00 C 429.34 435.56 414.87 439.33 400.00 437.00 C 385.13 434.67 379.77 454.85 395.00 458.00
M 591.00 414.00 
C 597.61 414.80 604.47 417.43 610.25 421.75 C 616.02 426.08 618.76 433.12 619.99 440.01 C 621.22 446.90 621.79 458.11 620.00 465.00 C 618.22 471.90 616.56 478.74 610.25 483.25 C 603.94 487.76 598.65 490.01 590.00 490.00 C 581.35 489.98 571.53 490.51 562.00 490.00 C 552.47 489.49 545.75 491.41 535.00 490.00 C 524.25 488.59 523.56 497.49 525.00 508.00 C 526.44 518.51 526.25 525.32 515.00 525.00 C 503.75 524.68 496.61 525.95 498.00 514.00 C 499.39 502.05 497.53 497.40 498.00 487.00 C 498.47 476.60 498.07 468.77 498.00 459.00 C 497.93 449.23 498.71 441.50 498.00 432.00 C 497.29 422.50 496.95 412.40 508.00 414.00 C 519.05 415.60 524.97 413.13 535.00 414.00 C 545.03 414.87 553.34 413.24 563.00 414.00 C 572.66 414.76 581.49 412.85 591.00 414.00
M 735.00 414.00 
C 753.07 416.18 770.67 428.97 771.00 449.00 C 771.32 469.03 776.36 494.02 763.75 510.75 C 751.15 527.48 727.69 526.25 708.00 526.00 C 688.31 525.75 663.40 528.67 647.75 515.25 C 632.10 501.82 635.90 476.06 636.00 458.00 C 636.10 439.94 643.95 417.97 665.02 416.02 C 686.10 414.08 713.02 411.34 735.00 414.00
M 890.00 487.00 
C 898.84 499.38 910.53 511.33 917.00 525.00
C 904.30 525.36 886.68 528.03 881.08 515.92 C 875.48 503.81 867.58 500.79 863.00 489.00
C 848.33 489.00 833.67 489.00 819.00 489.00
C 819.57 499.80 818.24 505.71 819.00 517.00 C 819.76 528.29 808.89 524.40 799.00 525.00 C 789.11 525.60 792.03 512.62 792.00 504.00 C 791.97 495.38 791.93 485.07 792.00 476.00 C 792.07 466.93 791.78 457.34 792.00 448.00 C 792.22 438.66 791.49 429.61 792.00 420.00 C 792.51 410.39 806.01 414.54 814.00 414.00 C 821.99 413.46 833.49 414.26 842.00 414.00 C 850.51 413.74 861.52 414.15 870.00 414.00 C 878.48 413.85 887.70 414.16 895.07 416.93 C 902.45 419.69 905.94 423.59 909.92 430.08 C 913.91 436.56 914.24 446.18 914.00 454.00 C 913.76 461.82 912.19 469.40 907.75 475.75 C 903.30 482.10 896.09 484.15 890.00 487.00
M 926.00 434.00 
C 924.03 430.35 924.14 420.60 926.00 417.00
C 929.70 409.84 947.23 414.97 956.00 414.00 C 964.77 413.03 979.36 413.80 989.00 414.00 C 998.64 414.20 1012.39 412.50 1022.00 414.00 C 1031.61 415.50 1046.68 407.99 1050.00 419.00 C 1053.32 430.01 1047.56 440.34 1035.00 437.00 C 1022.44 433.66 1014.17 439.50 1002.00 437.00
C 1002.26 445.86 1001.65 452.97 1002.00 462.00 C 1002.35 471.03 1001.36 478.48 1002.00 488.00 C 1002.64 497.52 1000.57 502.22 1002.00 513.00 C 1003.43 523.78 998.58 525.34 988.00 525.00 C 977.42 524.66 972.84 524.79 974.00 514.00 C 975.16 503.21 973.44 497.62 974.00 488.00 C 974.56 478.38 973.72 472.09 974.00 463.00 C 974.28 453.91 973.79 445.98 974.00 437.00
C 966.12 436.41 956.73 437.79 949.00 437.00 C 941.27 436.21 930.67 439.77 926.00 434.00
M 607.00 602.00 
C 619.23 603.11 631.77 600.89 644.00 602.00
C 647.60 602.77 646.29 612.25 645.00 614.00
C 644.78 614.30 644.30 614.78 644.00 615.00
C 639.47 618.34 630.74 614.98 625.00 616.00 C 619.26 617.02 611.07 615.61 606.00 615.00
C 598.55 614.85 590.84 613.37 585.75 607.25 C 580.66 601.12 580.73 591.94 581.00 584.00 C 581.27 576.06 581.28 567.45 587.75 561.75 C 594.23 556.05 599.96 555.95 609.01 555.01 C 618.05 554.07 628.09 555.97 638.00 555.00 C 647.91 554.03 647.63 569.52 637.00 568.00 C 626.36 566.48 618.21 568.41 608.00 568.00 C 597.79 567.59 596.60 575.11 596.00 584.00 C 595.40 592.89 597.30 599.99 607.00 602.00
M 673.00 556.00 
C 676.39 559.39 673.52 569.90 674.00 575.00 C 674.48 580.10 674.64 589.84 674.00 595.00 C 673.36 600.16 676.49 611.51 673.00 615.00
C 670.97 617.03 663.07 616.53 661.00 615.00
C 660.70 614.78 660.22 614.30 660.00 614.00
C 657.06 610.01 659.34 600.12 659.00 595.00 C 658.66 589.88 658.58 578.52 659.00 574.00 C 659.42 569.48 656.61 555.94 661.00 555.00
C 664.02 554.73 670.99 553.99 673.00 556.00
M 750.00 556.00 
C 753.61 559.61 751.44 569.81 745.00 568.00 C 738.56 566.19 732.41 569.36 726.00 568.00
C 726.00 583.33 726.00 598.67 726.00 614.00
C 724.47 617.10 714.09 617.09 712.00 615.00
C 707.50 610.50 712.58 598.49 711.00 592.00 C 709.42 585.51 712.19 574.87 711.00 568.00
C 702.67 568.00 694.33 568.00 686.00 568.00
C 686.63 564.17 684.72 559.01 687.00 556.00
C 690.57 552.43 701.54 555.47 707.00 555.00 C 712.46 554.53 723.49 554.36 729.00 555.00 C 734.51 555.64 746.34 552.34 750.00 556.00
M 772.00 556.00 
C 781.21 560.02 783.93 576.60 792.00 583.00
C 803.30 573.29 806.93 547.69 827.00 556.00
C 818.26 569.22 808.37 581.61 800.00 595.00
C 798.73 600.56 802.31 609.50 799.00 614.00
C 798.78 614.30 798.30 614.78 798.00 615.00
C 795.86 616.58 787.99 616.99 786.00 615.00
C 782.29 611.29 786.87 599.85 784.67 595.33 C 782.47 590.81 778.08 586.20 775.75 582.25 C 773.41 578.31 768.20 572.73 766.70 569.30 C 765.19 565.87 756.26 558.98 758.00 556.00
C 759.59 553.27 769.98 555.12 772.00 556.00
M 377.00 561.00 
C 375.34 561.00 373.66 561.03 372.00 561.00
C 369.14 560.95 366.60 561.01 364.00 560.00
C 365.14 558.13 368.13 559.39 370.00 559.00
C 372.66 558.89 375.34 559.00 378.00 559.00
C 393.00 559.00 408.00 559.00 423.00 559.00
C 428.04 558.51 434.27 558.00 440.00 558.00
C 452.67 558.00 465.33 558.00 478.00 558.00
C 481.73 557.64 486.59 557.00 491.00 557.00
C 518.28 557.00 544.79 556.08 572.00 556.00
C 568.73 571.91 556.17 567.23 543.00 567.00 C 529.83 566.77 515.49 565.53 502.00 565.00 C 488.50 564.47 473.62 564.79 460.00 564.00 C 446.38 563.21 432.76 562.56 419.00 562.00 C 405.24 561.44 391.05 560.61 377.00 561.00
M 560.00 579.00 
C 557.32 594.45 541.43 587.16 529.00 587.00 C 516.57 586.84 500.86 583.96 488.00 584.00
C 511.32 581.24 535.95 580.22 560.00 579.00 Z"/>
</g>
<g fill="None" fill-opacity="0.0" stroke="#000000" stroke-opacity="1.00" stroke-width="0.3"><path d="
M 855.00 152.00 
C 825.37 145.86 815.74 192.54 845.33 198.67 C 874.92 204.80 883.91 157.99 855.00 152.00 Z"/>
</g>
<g fill="None" fill-opacity="0.0" stroke="#000000" stroke-opacity="1.00" stroke-width="0.3"><path d="
M 675.00 210.00 
C 674.80 210.06 676.34 210.20 677.00 210.00
C 678.77 209.47 680.29 208.84 682.00 208.00
C 698.85 199.74 714.32 189.75 733.02 186.02 C 751.73 182.30 775.69 181.89 788.30 199.70 C 800.91 217.50 778.44 233.03 765.25 243.25 C 752.06 253.47 738.21 265.06 725.25 276.25 C 712.29 287.43 697.87 297.53 684.92 308.92 C 671.97 320.31 657.05 331.28 644.00 342.00
C 641.03 344.44 638.59 348.24 635.00 350.00
C 634.60 350.20 634.00 350.00 634.00 350.00
C 623.20 363.22 609.36 374.47 599.00 388.00
C 620.28 374.56 641.08 357.99 662.25 344.25 C 683.42 330.50 703.61 312.90 724.92 299.92 C 746.23 286.94 765.93 268.07 787.30 256.30 C 808.67 244.54 838.15 217.02 819.25 192.75 C 800.34 168.48 766.39 163.67 740.02 169.02 C 713.65 174.38 693.60 191.40 675.00 210.00 Z"/>
</g>
<g fill="None" fill-opacity="0.0" stroke="#2AF127" stroke-opacity="1.00" stroke-width="0.3"><path d="
M 682.00 208.00 
C 680.69 209.15 680.46 210.92 679.00 212.00
C 692.17 206.83 702.87 203.45 716.93 199.93 C 730.98 196.40 743.76 193.54 758.97 199.03 C 774.18 204.52 763.94 218.18 754.75 225.75 C 745.56 233.32 738.31 241.98 730.30 250.30 C 722.30 258.62 714.45 267.03 706.25 275.25 C 698.05 283.47 689.34 291.13 681.75 299.75 C 674.17 308.37 665.63 316.26 657.75 324.75 C 649.87 333.25 641.57 341.14 634.00 350.00
C 634.00 350.00 634.60 350.20 635.00 350.00
C 637.46 346.48 641.65 343.17 644.00 342.00
C 657.05 331.28 671.97 320.31 684.92 308.92 C 697.87 297.53 712.29 287.43 725.25 276.25 C 738.21 265.06 752.06 253.47 765.25 243.25 C 778.44 233.03 800.91 217.50 788.30 199.70 C 775.69 181.89 751.73 182.30 733.02 186.02 C 714.32 189.75 698.85 199.74 682.00 208.00 Z"/>
</g>
<g fill="None" fill-opacity="0.0" stroke="#94C492" stroke-opacity="1.00" stroke-width="0.3"><path d="
M 929.00 198.00 
C 929.48 197.91 930.00 198.00 930.00 198.00
C 930.83 197.41 933.40 196.73 933.00 197.00
C 934.98 196.30 935.73 193.83 936.00 192.00
C 933.51 192.60 930.07 195.40 929.00 198.00 Z"/>
</g>
<g fill="None" fill-opacity="0.0" stroke="#000100" stroke-opacity="1.00" stroke-width="0.3"><path d="
M 930.00 198.00 
C 920.07 215.49 905.09 224.00 889.30 236.30 C 873.51 248.60 845.45 239.06 832.00 226.00
C 830.86 232.75 824.87 237.27 822.00 243.00
C 841.79 258.29 870.73 265.90 892.30 251.30 C 913.87 236.70 921.28 218.03 933.00 197.00
C 933.40 196.73 930.83 197.41 930.00 198.00 Z"/>
</g>
<g fill="None" fill-opacity="0.0" stroke="#31F22D" stroke-opacity="1.00" stroke-width="0.3"><path d="
M 832.00 226.00 
C 845.45 239.06 873.51 248.60 889.30 236.30 C 905.09 224.00 920.07 215.49 930.00 198.00
C 930.00 198.00 929.48 197.91 929.00 198.00
C 913.26 209.42 902.05 220.47 883.22 227.22 C 864.39 233.97 847.60 217.32 834.00 206.00
C 834.41 212.95 833.98 219.66 832.00 226.00 Z"/>
</g>
<g fill="None" fill-opacity="0.0" stroke="#000000" stroke-opacity="1.00" stroke-width="0.3"><path d="
M 651.00 231.00 
C 644.50 231.00 636.67 231.83 631.00 230.00
C 637.25 220.08 644.57 210.87 651.00 201.00
C 621.88 216.91 593.70 235.01 565.00 252.00
C 599.01 254.33 635.16 252.33 670.00 253.00
C 664.05 268.79 656.32 284.06 651.00 300.00
C 674.29 277.55 697.50 254.33 720.00 231.00
C 697.00 231.00 674.00 231.00 651.00 231.00 Z"/>
</g>
<g fill="None" fill-opacity="0.0" stroke="#5DC153" stroke-opacity="1.00" stroke-width="0.3"><path d="
M 677.00 210.00 
C 675.70 210.77 674.29 213.33 673.00 214.00
C 675.44 213.58 676.75 212.88 679.00 212.00
C 680.46 210.92 680.69 209.15 682.00 208.00
C 680.29 208.84 678.77 209.47 677.00 210.00 Z"/>
</g>
<g fill="None" fill-opacity="0.0" stroke="#31592F" stroke-opacity="1.00" stroke-width="0.3"><path d="
M 673.00 214.00 
C 674.29 213.33 675.70 210.77 677.00 210.00
C 676.34 210.20 674.80 210.06 675.00 210.00
C 673.00 211.09 671.26 213.07 670.00 215.00
C 671.24 215.48 672.00 214.17 673.00 214.00 Z"/>
</g>
<g fill="None" fill-opacity="0.0" stroke="#838383" stroke-opacity="1.00" stroke-width="0.3"><path d="
M 651.00 231.00 
C 645.16 230.43 637.63 229.34 631.00 230.00
C 636.67 231.83 644.50 231.00 651.00 231.00 Z"/>
</g>
<g fill="None" fill-opacity="0.0" stroke="#46F443" stroke-opacity="1.00" stroke-width="0.3"><path d="
M 482.00 270.00 
C 481.81 270.08 481.81 271.92 482.00 272.00
C 487.00 272.10 492.00 271.90 497.00 272.00
C 504.65 272.15 512.48 273.34 520.00 274.00
C 532.49 273.53 544.67 274.91 557.00 275.00 C 569.33 275.09 580.95 275.72 593.00 277.00 C 605.05 278.28 617.99 276.28 630.00 278.00 C 642.01 279.72 650.62 277.77 652.00 264.00
C 594.80 264.08 538.94 268.86 482.00 270.00 Z"/>
</g>
<g fill="None" fill-opacity="0.0" stroke="#C5F7C5" stroke-opacity="1.00" stroke-width="0.3"><path d="
M 482.00 272.00 
C 481.81 271.92 481.81 270.08 482.00 270.00
C 479.80 270.44 476.45 269.04 475.00 271.00
C 476.39 272.79 479.80 271.96 482.00 272.00 Z"/>
</g>
<g fill="None" fill-opacity="0.0" stroke="#000000" stroke-opacity="1.00" stroke-width="0.3"><path d="
M 714.00 356.00 
C 727.31 353.14 741.11 349.01 753.98 344.98 C 766.84 340.94 778.59 337.22 790.92 331.92 C 803.26 326.63 811.90 323.01 822.25 313.25 C 832.60 303.48 821.97 287.35 810.69 283.31 C 799.42 279.27 787.65 267.14 777.23 275.23 C 766.81 283.32 758.20 288.04 748.00 296.00
C 755.29 302.32 773.42 297.93 780.30 304.70 C 787.17 311.47 769.22 318.47 763.23 323.23 C 757.24 327.99 745.69 334.54 738.70 339.70 C 731.70 344.85 720.58 350.04 714.00 356.00 Z"/>
</g>
<g fill="None" fill-opacity="0.0" stroke="#E7FFE7" stroke-opacity="1.00" stroke-width="0.3"><path d="
M 520.00 274.00 
C 512.48 273.34 504.65 272.15 497.00 272.00
C 500.44 272.85 503.50 275.74 508.00 275.00 C 512.50 274.26 516.23 274.36 520.00 274.00 Z"/>
</g>
<g fill="None" fill-opacity="0.0" stroke="#E2FFDF" stroke-opacity="1.00" stroke-width="0.3"><path d="
M 592.00 292.00 
C 597.76 291.61 604.72 290.51 610.00 290.00
C 606.75 289.69 603.58 289.43 600.00 289.00 C 596.43 288.58 593.63 291.57 592.00 292.00 Z"/>
</g>
<g fill="None" fill-opacity="0.0" stroke="#4DF349" stroke-opacity="1.00" stroke-width="0.3"><path d="
M 610.00 290.00 
C 604.72 290.51 597.76 291.61 592.00 292.00
C 577.93 292.96 563.87 292.74 550.00 294.00
C 549.80 294.10 549.84 295.94 550.00 296.00
C 577.79 298.53 605.85 299.94 634.00 301.00
C 634.52 296.72 638.74 293.63 638.00 289.00
C 628.44 287.74 619.40 290.88 610.00 290.00 Z"/>
</g>
<g fill="None" fill-opacity="0.0" stroke="#9EEE9E" stroke-opacity="1.00" stroke-width="0.3"><path d="
M 550.00 296.00 
C 549.84 295.94 549.80 294.10 550.00 294.00
C 547.80 294.44 544.45 293.04 543.00 295.00
C 544.40 296.88 547.78 295.83 550.00 296.00 Z"/>
</g>
<g fill="None" fill-opacity="0.0" stroke="#4DB248" stroke-opacity="1.00" stroke-width="0.3"><path d="
M 635.00 350.00 
C 638.59 348.24 641.03 344.44 644.00 342.00
C 641.65 343.17 637.46 346.48 635.00 350.00 Z"/>
</g>
<g fill="None" fill-opacity="0.0" stroke="#000000" stroke-opacity="1.00" stroke-width="0.3"><path d="
M 390.00 479.00 
C 406.41 479.00 424.45 477.78 440.00 480.00
C 449.53 480.36 454.98 489.65 450.30 498.30 C 445.62 506.95 434.73 502.49 426.00 503.00 C 417.27 503.51 405.37 503.73 396.00 503.00 C 386.63 502.27 376.75 505.62 367.00 503.00 C 357.25 500.38 353.89 516.90 358.71 523.29 C 363.52 529.69 377.89 523.29 386.00 525.00 C 394.11 526.71 407.25 524.18 416.00 525.00 C 424.75 525.82 436.31 524.59 445.00 525.00 C 453.69 525.41 462.45 523.97 469.25 519.25 C 476.05 514.53 477.85 506.48 478.00 499.00
C 478.09 494.36 478.18 489.64 478.00 485.00
C 477.25 465.27 461.90 459.00 444.00 459.00
C 428.27 459.00 409.76 461.06 395.00 458.00
C 379.77 454.85 385.13 434.67 400.00 437.00 C 414.87 439.33 429.34 435.56 444.00 437.00 C 458.66 438.44 476.20 440.17 474.00 423.00 C 471.80 405.83 452.01 415.90 439.00 414.00 C 425.99 412.10 407.36 414.67 395.00 414.00 C 382.64 413.33 369.84 415.98 362.92 425.92 C 356.01 435.87 357.83 452.86 361.08 463.92 C 364.33 474.99 380.15 479.00 390.00 479.00 Z"/>
</g>
<g fill="None" fill-opacity="0.0" stroke="#000000" stroke-opacity="1.00" stroke-width="0.3"><path d="
M 591.00 414.00 
C 581.49 412.85 572.66 414.76 563.00 414.00 C 553.34 413.24 545.03 414.87 535.00 414.00 C 524.97 413.13 519.05 415.60 508.00 414.00 C 496.95 412.40 497.29 422.50 498.00 432.00 C 498.71 441.50 497.93 449.23 498.00 459.00 C 498.07 468.77 498.47 476.60 498.00 487.00 C 497.53 497.40 499.39 502.05 498.00 514.00 C 496.61 525.95 503.75 524.68 515.00 525.00 C 526.25 525.32 526.44 518.51 525.00 508.00 C 523.56 497.49 524.25 488.59 535.00 490.00 C 545.75 491.41 552.47 489.49 562.00 490.00 C 571.53 490.51 581.35 489.98 590.00 490.00 C 598.65 490.01 603.94 487.76 610.25 483.25 C 616.56 478.74 618.22 471.90 620.00 465.00 C 621.79 458.11 621.22 446.90 619.99 440.01 C 618.76 433.12 616.02 426.08 610.25 421.75 C 604.47 417.43 597.61 414.80 591.00 414.00
M 582.00 468.00 
C 576.85 468.92 569.82 469.63 564.00 469.00 C 558.18 468.37 549.47 470.11 544.00 469.00 C 538.53 467.89 528.64 471.79 525.00 468.00
C 524.61 463.75 524.56 455.98 525.00 452.00 C 525.44 448.02 522.97 439.12 526.00 437.00
C 529.99 434.20 538.90 438.19 544.00 437.00 C 549.10 435.81 557.61 437.55 563.00 437.00 C 568.39 436.45 575.86 437.20 581.00 437.00 C 586.14 436.80 590.86 439.21 592.92 444.08 C 594.97 448.95 593.85 454.60 593.02 460.02 C 592.19 465.45 587.13 467.65 582.00 468.00 Z"/>
</g>
<g fill="None" fill-opacity="0.0" stroke="#000000" stroke-opacity="1.00" stroke-width="0.3"><path d="
M 735.00 414.00 
C 713.02 411.34 686.10 414.08 665.02 416.02 C 643.95 417.97 636.10 439.94 636.00 458.00 C 635.90 476.06 632.10 501.82 647.75 515.25 C 663.40 528.67 688.31 525.75 708.00 526.00 C 727.69 526.25 751.15 527.48 763.75 510.75 C 776.36 494.02 771.32 469.03 771.00 449.00 C 770.67 428.97 753.07 416.18 735.00 414.00
M 720.00 437.00 
C 735.22 437.00 743.69 443.36 744.00 459.00
C 744.80 465.64 744.79 473.42 744.00 480.00
C 743.70 495.19 733.95 505.44 718.00 503.00 C 702.05 500.56 686.52 507.83 672.31 499.69 C 658.10 491.56 664.76 475.70 663.00 460.00 C 661.24 444.30 675.37 437.00 690.00 437.00
C 699.43 436.09 710.64 436.09 720.00 437.00 Z"/>
</g>
<g fill="None" fill-opacity="0.0" stroke="#000000" stroke-opacity="1.00" stroke-width="0.3"><path d="
M 890.00 487.00 
C 896.09 484.15 903.30 482.10 907.75 475.75 C 912.19 469.40 913.76 461.82 914.00 454.00 C 914.24 446.18 913.91 436.56 909.92 430.08 C 905.94 423.59 902.45 419.69 895.07 416.93 C 887.70 414.16 878.48 413.85 870.00 414.00 C 861.52 414.15 850.51 413.74 842.00 414.00 C 833.49 414.26 821.99 413.46 814.00 414.00 C 806.01 414.54 792.51 410.39 792.00 420.00 C 791.49 429.61 792.22 438.66 792.00 448.00 C 791.78 457.34 792.07 466.93 792.00 476.00 C 791.93 485.07 791.97 495.38 792.00 504.00 C 792.03 512.62 789.11 525.60 799.00 525.00 C 808.89 524.40 819.76 528.29 819.00 517.00 C 818.24 505.71 819.57 499.80 819.00 489.00
C 833.67 489.00 848.33 489.00 863.00 489.00
C 867.58 500.79 875.48 503.81 881.08 515.92 C 886.68 528.03 904.30 525.36 917.00 525.00
C 910.53 511.33 898.84 499.38 890.00 487.00
M 819.00 468.00 
C 819.00 457.67 819.00 447.33 819.00 437.00
C 836.62 436.23 856.62 438.03 874.00 437.00 C 891.38 435.97 892.45 467.87 874.99 467.99 C 857.53 468.12 836.76 467.91 819.00 468.00 Z"/>
</g>
<g fill="None" fill-opacity="0.0" stroke="#000000" stroke-opacity="1.00" stroke-width="0.3"><path d="
M 926.00 417.00 
C 924.96 420.09 924.91 430.93 926.00 434.00
C 930.67 439.77 941.27 436.21 949.00 437.00 C 956.73 437.79 966.12 436.41 974.00 437.00
C 973.79 445.98 974.28 453.91 974.00 463.00 C 973.72 472.09 974.56 478.38 974.00 488.00 C 973.44 497.62 975.16 503.21 974.00 514.00 C 972.84 524.79 977.42 524.66 988.00 525.00 C 998.58 525.34 1003.43 523.78 1002.00 513.00 C 1000.57 502.22 1002.64 497.52 1002.00 488.00 C 1001.36 478.48 1002.35 471.03 1002.00 462.00 C 1001.65 452.97 1002.26 445.86 1002.00 437.00
C 1014.17 439.50 1022.44 433.66 1035.00 437.00 C 1047.56 440.34 1053.32 430.01 1050.00 419.00 C 1046.68 407.99 1031.61 415.50 1022.00 414.00 C 1012.39 412.50 998.64 414.20 989.00 414.00 C 979.36 413.80 964.77 413.03 956.00 414.00 C 947.23 414.97 929.70 409.84 926.00 417.00 Z"/>
</g>
<g fill="None" fill-opacity="0.0" stroke="#898989" stroke-opacity="1.00" stroke-width="0.3"><path d="
M 926.00 434.00 
C 924.91 430.93 924.96 420.09 926.00 417.00
C 924.14 420.60 924.03 430.35 926.00 434.00 Z"/>
</g>
<g fill="None" fill-opacity="0.0" stroke="#606060" stroke-opacity="1.00" stroke-width="0.3"><path d="
M 690.00 437.00 
C 700.00 437.00 710.00 437.00 720.00 437.00
C 710.64 436.09 699.43 436.09 690.00 437.00 Z"/>
</g>
<g fill="None" fill-opacity="0.0" stroke="#A9A9A9" stroke-opacity="1.00" stroke-width="0.3"><path d="
M 525.00 468.00 
C 525.00 468.05 526.00 468.00 526.00 468.00
C 526.93 457.75 525.31 447.27 526.00 437.00
C 522.97 439.12 525.44 448.02 525.00 452.00 C 524.56 455.98 524.61 463.75 525.00 468.00 Z"/>
</g>
<g fill="None" fill-opacity="0.0" stroke="#FDFDFD" stroke-opacity="1.00" stroke-width="0.3"><path d="
M 526.00 468.00 
C 544.52 468.00 563.53 469.26 582.00 468.00
C 587.13 467.65 592.19 465.45 593.02 460.02 C 593.85 454.60 594.97 448.95 592.92 444.08 C 590.86 439.21 586.14 436.80 581.00 437.00 C 575.86 437.20 568.39 436.45 563.00 437.00 C 557.61 437.55 549.10 435.81 544.00 437.00 C 538.90 438.19 529.99 434.20 526.00 437.00
C 525.31 447.27 526.93 457.75 526.00 468.00 Z"/>
</g>
<g fill="None" fill-opacity="0.0" stroke="#FCFCFC" stroke-opacity="1.00" stroke-width="0.3"><path d="
M 744.00 480.00 
C 744.14 473.02 744.14 465.98 744.00 459.00
C 743.69 443.36 735.22 437.00 720.00 437.00
C 710.00 437.00 700.00 437.00 690.00 437.00
C 675.37 437.00 661.24 444.30 663.00 460.00 C 664.76 475.70 658.10 491.56 672.31 499.69 C 686.52 507.83 702.05 500.56 718.00 503.00 C 733.95 505.44 743.70 495.19 744.00 480.00 Z"/>
</g>
<g fill="None" fill-opacity="0.0" stroke="#FBFBFB" stroke-opacity="1.00" stroke-width="0.3"><path d="
M 819.00 468.00 
C 836.76 467.91 857.53 468.12 874.99 467.99 C 892.45 467.87 891.38 435.97 874.00 437.00 C 856.62 438.03 836.62 436.23 819.00 437.00
C 819.00 447.33 819.00 457.67 819.00 468.00 Z"/>
</g>
<g fill="None" fill-opacity="0.0" stroke="#828383" stroke-opacity="1.00" stroke-width="0.3"><path d="
M 444.00 459.00 
C 428.56 457.51 411.11 459.46 395.00 458.00
C 409.76 461.06 428.27 459.00 444.00 459.00 Z"/>
</g>
<g fill="None" fill-opacity="0.0" stroke="#646464" stroke-opacity="1.00" stroke-width="0.3"><path d="
M 744.00 480.00 
C 744.79 473.42 744.80 465.64 744.00 459.00
C 744.14 465.98 744.14 473.02 744.00 480.00 Z"/>
</g>
<g fill="None" fill-opacity="0.0" stroke="#696969" stroke-opacity="1.00" stroke-width="0.3"><path d="
M 582.00 468.00 
C 563.53 469.26 544.52 468.00 526.00 468.00
C 526.00 468.00 525.00 468.05 525.00 468.00
C 528.64 471.79 538.53 467.89 544.00 469.00 C 549.47 470.11 558.18 468.37 564.00 469.00 C 569.82 469.63 576.85 468.92 582.00 468.00 Z"/>
</g>
<g fill="None" fill-opacity="0.0" stroke="#6D6D6D" stroke-opacity="1.00" stroke-width="0.3"><path d="
M 440.00 480.00 
C 424.45 477.78 406.41 479.00 390.00 479.00
C 405.81 480.53 423.42 479.37 440.00 480.00 Z"/>
</g>
<g fill="None" fill-opacity="0.0" stroke="#605F60" stroke-opacity="1.00" stroke-width="0.3"><path d="
M 478.00 499.00 
C 478.54 494.53 478.65 489.55 478.00 485.00
C 478.18 489.64 478.09 494.36 478.00 499.00 Z"/>
</g>
<g fill="None" fill-opacity="0.0" stroke="#000000" stroke-opacity="1.00" stroke-width="0.3"><path d="
M 606.00 615.00 
C 618.12 615.24 632.01 616.73 644.00 615.00
C 644.30 614.78 644.78 614.30 645.00 614.00
C 645.44 610.91 645.66 605.24 644.00 603.00
C 632.57 604.04 617.55 604.19 607.00 602.00
C 597.30 599.99 595.40 592.89 596.00 584.00 C 596.60 575.11 597.79 567.59 608.00 568.00 C 618.21 568.41 626.36 566.48 637.00 568.00 C 647.63 569.52 647.91 554.03 638.00 555.00 C 628.09 555.97 618.05 554.07 609.01 555.01 C 599.96 555.95 594.23 556.05 587.75 561.75 C 581.28 567.45 581.27 576.06 581.00 584.00 C 580.73 591.94 580.66 601.12 585.75 607.25 C 590.84 613.37 598.55 614.85 606.00 615.00 Z"/>
</g>
<g fill="None" fill-opacity="0.0" stroke="#838383" stroke-opacity="1.00" stroke-width="0.3"><path d="
M 660.00 614.00 
C 658.82 605.83 659.24 593.00 660.00 585.00 C 660.76 577.00 656.53 562.02 661.00 556.00
C 661.24 555.68 661.00 555.00 661.00 555.00
C 656.61 555.94 659.42 569.48 659.00 574.00 C 658.58 578.52 658.66 589.88 659.00 595.00 C 659.34 600.12 657.06 610.01 660.00 614.00 Z"/>
</g>
<g fill="None" fill-opacity="0.0" stroke="#5C5C5C" stroke-opacity="1.00" stroke-width="0.3"><path d="
M 661.00 556.00 
C 663.64 556.24 670.92 554.54 673.00 556.00
C 670.99 553.99 664.02 554.73 661.00 555.00
C 661.00 555.00 661.24 555.68 661.00 556.00 Z"/>
</g>
<g fill="None" fill-opacity="0.0" stroke="#646464" stroke-opacity="1.00" stroke-width="0.3"><path d="
M 687.00 556.00 
C 691.10 553.13 702.74 556.78 708.00 556.00 C 713.26 555.22 723.74 555.22 729.00 556.00 C 734.26 556.78 745.90 553.13 750.00 556.00
C 746.34 552.34 734.51 555.64 729.00 555.00 C 723.49 554.36 712.46 554.53 707.00 555.00 C 701.54 555.47 690.57 552.43 687.00 556.00 Z"/>
</g>
<g fill="None" fill-opacity="0.0" stroke="#5D5D5D" stroke-opacity="1.00" stroke-width="0.3"><path d="
M 758.00 556.00 
C 762.42 556.89 767.66 554.81 772.00 556.00
C 769.98 555.12 759.59 553.27 758.00 556.00 Z"/>
</g>
<g fill="None" fill-opacity="0.0" stroke="#000000" stroke-opacity="1.00" stroke-width="0.3"><path d="
M 772.00 556.00 
C 767.66 554.81 762.42 556.89 758.00 556.00
C 756.26 558.98 765.19 565.87 766.70 569.30 C 768.20 572.73 773.41 578.31 775.75 582.25 C 778.08 586.20 782.47 590.81 784.67 595.33 C 786.87 599.85 782.29 611.29 786.00 615.00
C 787.59 616.11 795.97 615.29 798.00 615.00
C 798.30 614.78 798.78 614.30 799.00 614.00
C 799.91 607.71 797.89 600.58 800.00 595.00
C 808.37 581.61 818.26 569.22 827.00 556.00
C 806.93 547.69 803.30 573.29 792.00 583.00
C 783.93 576.60 781.21 560.02 772.00 556.00 Z"/>
</g>
<g fill="None" fill-opacity="0.0" stroke="#030403" stroke-opacity="1.00" stroke-width="0.3"><path d="
M 491.00 557.00 
C 487.27 557.36 482.41 558.00 478.00 558.00
C 465.33 558.00 452.67 558.00 440.00 558.00
C 434.96 558.49 428.73 559.00 423.00 559.00
C 408.00 559.00 393.00 559.00 378.00 559.00
C 377.54 559.21 377.31 560.82 377.00 561.00
C 391.05 560.61 405.24 561.44 419.00 562.00 C 432.76 562.56 446.38 563.21 460.00 564.00 C 473.62 564.79 488.50 564.47 502.00 565.00 C 515.49 565.53 529.83 566.77 543.00 567.00 C 556.17 567.23 568.73 571.91 572.00 556.00
C 544.79 556.08 518.28 557.00 491.00 557.00 Z"/>
</g>
<g fill="None" fill-opacity="0.0" stroke="#000000" stroke-opacity="1.00" stroke-width="0.3"><path d="
M 660.00 614.00 
C 660.22 614.30 660.70 614.78 661.00 615.00
C 663.03 615.29 671.41 616.11 673.00 615.00
C 676.49 611.51 673.36 600.16 674.00 595.00 C 674.64 589.84 674.48 580.10 674.00 575.00 C 673.52 569.90 676.39 559.39 673.00 556.00
C 670.92 554.54 663.64 556.24 661.00 556.00
C 656.53 562.02 660.76 577.00 660.00 585.00 C 659.24 593.00 658.82 605.83 660.00 614.00 Z"/>
</g>
<g fill="None" fill-opacity="0.0" stroke="#000000" stroke-opacity="1.00" stroke-width="0.3"><path d="
M 712.00 615.00 
C 713.50 616.05 724.91 615.54 726.00 614.00
C 726.00 598.67 726.00 583.33 726.00 568.00
C 732.41 569.36 738.56 566.19 745.00 568.00 C 751.44 569.81 753.61 559.61 750.00 556.00
C 745.90 553.13 734.26 556.78 729.00 556.00 C 723.74 555.22 713.26 555.22 708.00 556.00 C 702.74 556.78 691.10 553.13 687.00 556.00
C 684.72 559.01 686.63 564.17 686.00 568.00
C 694.33 568.00 702.67 568.00 711.00 568.00
C 712.19 574.87 709.42 585.51 711.00 592.00 C 712.58 598.49 707.50 610.50 712.00 615.00 Z"/>
</g>
<g fill="None" fill-opacity="0.0" stroke="#818181" stroke-opacity="1.00" stroke-width="0.3"><path d="
M 478.00 558.00 
C 482.41 558.00 487.27 557.36 491.00 557.00
C 486.59 557.00 481.73 557.64 478.00 558.00 Z"/>
</g>
<g fill="None" fill-opacity="0.0" stroke="#7B7B7B" stroke-opacity="1.00" stroke-width="0.3"><path d="
M 423.00 559.00 
C 428.73 559.00 434.96 558.49 440.00 558.00
C 434.27 558.00 428.04 558.51 423.00 559.00 Z"/>
</g>
<g fill="None" fill-opacity="0.0" stroke="#B3B4B3" stroke-opacity="1.00" stroke-width="0.3"><path d="
M 372.00 561.00 
C 371.54 560.85 370.39 559.13 370.00 559.00
C 368.13 559.39 365.14 558.13 364.00 560.00
C 366.60 561.01 369.14 560.95 372.00 561.00 Z"/>
</g>
<g fill="None" fill-opacity="0.0" stroke="#868787" stroke-opacity="1.00" stroke-width="0.3"><path d="
M 372.00 561.00 
C 373.66 561.03 375.34 561.00 377.00 561.00
C 377.31 560.82 377.54 559.21 378.00 559.00
C 375.34 559.00 372.66 558.89 370.00 559.00
C 370.39 559.13 371.54 560.85 372.00 561.00 Z"/>
</g>
<g fill="None" fill-opacity="0.0" stroke="#070807" stroke-opacity="1.00" stroke-width="0.3"><path d="
M 560.00 579.00 
C 535.95 580.22 511.32 581.24 488.00 584.00
C 500.86 583.96 516.57 586.84 529.00 587.00 C 541.43 587.16 557.32 594.45 560.00 579.00 Z"/>
</g>
<g fill="None" fill-opacity="0.0" stroke="#929294" stroke-opacity="1.00" stroke-width="0.3"><path d="
M 799.00 614.00 
C 802.31 609.50 798.73 600.56 800.00 595.00
C 797.89 600.58 799.91 607.71 799.00 614.00 Z"/>
</g>
<g fill="None" fill-opacity="0.0" stroke="#6B6C6C" stroke-opacity="1.00" stroke-width="0.3"><path d="
M 644.00 603.00 
C 643.76 602.68 644.00 602.00 644.00 602.00
C 631.77 600.89 619.23 603.11 607.00 602.00
C 617.55 604.19 632.57 604.04 644.00 603.00 Z"/>
</g>
<g fill="None" fill-opacity="0.0" stroke="#C6C6C6" stroke-opacity="1.00" stroke-width="0.3"><path d="
M 644.00 603.00 
C 645.66 605.24 645.44 610.91 645.00 614.00
C 646.29 612.25 647.60 602.77 644.00 602.00
C 644.00 602.00 643.76 602.68 644.00 603.00 Z"/>
</g>
<g fill="None" fill-opacity="0.0" stroke="#8E8F8F" stroke-opacity="1.00" stroke-width="0.3"><path d="
M 712.00 615.00 
C 714.09 617.09 724.47 617.10 726.00 614.00
C 724.91 615.54 713.50 616.05 712.00 615.00 Z"/>
</g>
<g fill="None" fill-opacity="0.0" stroke="#868786" stroke-opacity="1.00" stroke-width="0.3"><path d="
M 644.00 615.00 
C 632.01 616.73 618.12 615.24 606.00 615.00
C 611.07 615.61 619.26 617.02 625.00 616.00 C 630.74 614.98 639.47 618.34 644.00 615.00 Z"/>
</g>
<g fill="None" fill-opacity="0.0" stroke="#8C8C8C" stroke-opacity="1.00" stroke-width="0.3"><path d="
M 673.00 615.00 
C 671.41 616.11 663.03 615.29 661.00 615.00
C 663.07 616.53 670.97 617.03 673.00 615.00 Z"/>
</g>
<g fill="None" fill-opacity="0.0" stroke="#909190" stroke-opacity="1.00" stroke-width="0.3"><path d="
M 798.00 615.00 
C 795.97 615.29 787.59 616.11 786.00 615.00
C 787.99 616.99 795.86 616.58 798.00 615.00 Z"/>
</g>
<g fill="#FEFEFE" fill-opacity="1.00" stroke="None">
<path d="
M 0.00 768.00 
L 1408.00 768.00
L 1408.00 0.00
L 0.00 0.00
L 0.00 768.00
M 855.00 152.00 
C 883.91 157.99 874.92 204.80 845.33 198.67 C 815.74 192.54 825.37 145.86 855.00 152.00
M 634.00 350.00 
C 641.57 341.14 649.87 333.25 657.75 324.75 C 665.63 316.26 674.17 308.37 681.75 299.75 C 689.34 291.13 698.05 283.47 706.25 275.25 C 714.45 267.03 722.30 258.62 730.30 250.30 C 738.31 241.98 745.56 233.32 754.75 225.75 C 763.94 218.18 774.18 204.52 758.97 199.03 C 743.76 193.54 730.98 196.40 716.93 199.93 C 702.87 203.45 692.17 206.83 679.00 212.00
C 676.75 212.88 675.44 213.58 673.00 214.00
C 672.00 214.17 671.24 215.48 670.00 215.00
C 671.26 213.07 673.00 211.09 675.00 210.00
C 693.60 191.40 713.65 174.38 740.02 169.02 C 766.39 163.67 800.34 168.48 819.25 192.75 C 838.15 217.02 808.67 244.54 787.30 256.30 C 765.93 268.07 746.23 286.94 724.92 299.92 C 703.61 312.90 683.42 330.50 662.25 344.25 C 641.08 357.99 620.28 374.56 599.00 388.00
C 609.36 374.47 623.20 363.22 634.00 350.00
M 933.00 197.00 
C 921.28 218.03 913.87 236.70 892.30 251.30 C 870.73 265.90 841.79 258.29 822.00 243.00
C 824.87 237.27 830.86 232.75 832.00 226.00
C 833.98 219.66 834.41 212.95 834.00 206.00
C 847.60 217.32 864.39 233.97 883.22 227.22 C 902.05 220.47 913.26 209.42 929.00 198.00
C 930.07 195.40 933.51 192.60 936.00 192.00
C 935.73 193.83 934.98 196.30 933.00 197.00
M 631.00 230.00 
C 637.63 229.34 645.16 230.43 651.00 231.00
C 674.00 231.00 697.00 231.00 720.00 231.00
C 697.50 254.33 674.29 277.55 651.00 300.00
C 656.32 284.06 664.05 268.79 670.00 253.00
C 635.16 252.33 599.01 254.33 565.00 252.00
C 593.70 235.01 621.88 216.91 651.00 201.00
C 644.57 210.87 637.25 220.08 631.00 230.00
M 520.00 274.00 
C 516.23 274.36 512.50 274.26 508.00 275.00 C 503.50 275.74 500.44 272.85 497.00 272.00
C 492.00 271.90 487.00 272.10 482.00 272.00
C 479.80 271.96 476.39 272.79 475.00 271.00
C 476.45 269.04 479.80 270.44 482.00 270.00
C 538.94 268.86 594.80 264.08 652.00 264.00
C 650.62 277.77 642.01 279.72 630.00 278.00 C 617.99 276.28 605.05 278.28 593.00 277.00 C 580.95 275.72 569.33 275.09 557.00 275.00 C 544.67 274.91 532.49 273.53 520.00 274.00
M 714.00 356.00 
C 720.58 350.04 731.70 344.85 738.70 339.70 C 745.69 334.54 757.24 327.99 763.23 323.23 C 769.22 318.47 787.17 311.47 780.30 304.70 C 773.42 297.93 755.29 302.32 748.00 296.00
C 758.20 288.04 766.81 283.32 777.23 275.23 C 787.65 267.14 799.42 279.27 810.69 283.31 C 821.97 287.35 832.60 303.48 822.25 313.25 C 811.90 323.01 803.26 326.63 790.92 331.92 C 778.59 337.22 766.84 340.94 753.98 344.98 C 741.11 349.01 727.31 353.14 714.00 356.00
M 610.00 290.00 
C 619.40 290.88 628.44 287.74 638.00 289.00
C 638.74 293.63 634.52 296.72 634.00 301.00
C 605.85 299.94 577.79 298.53 550.00 296.00
C 547.78 295.83 544.40 296.88 543.00 295.00
C 544.45 293.04 547.80 294.44 550.00 294.00
C 563.87 292.74 577.93 292.96 592.00 292.00
C 593.63 291.57 596.43 288.58 600.00 289.00 C 603.58 289.43 606.75 289.69 610.00 290.00
M 395.00 458.00 
C 411.11 459.46 428.56 457.51 444.00 459.00
C 461.90 459.00 477.25 465.27 478.00 485.00
C 478.65 489.55 478.54 494.53 478.00 499.00
C 477.85 506.48 476.05 514.53 469.25 519.25 C 462.45 523.97 453.69 525.41 445.00 525.00 C 436.31 524.59 424.75 525.82 416.00 525.00 C 407.25 524.18 394.11 526.71 386.00 525.00 C 377.89 523.29 363.52 529.69 358.71 523.29 C 353.89 516.90 357.25 500.38 367.00 503.00 C 376.75 505.62 386.63 502.27 396.00 503.00 C 405.37 503.73 417.27 503.51 426.00 503.00 C 434.73 502.49 445.62 506.95 450.30 498.30 C 454.98 489.65 449.53 480.36 440.00 480.00
C 423.42 479.37 405.81 480.53 390.00 479.00
C 380.15 479.00 364.33 474.99 361.08 463.92 C 357.83 452.86 356.01 435.87 362.92 425.92 C 369.84 415.98 382.64 413.33 395.00 414.00 C 407.36 414.67 425.99 412.10 439.00 414.00 C 452.01 415.90 471.80 405.83 474.00 423.00 C 476.20 440.17 458.66 438.44 444.00 437.00 C 429.34 435.56 414.87 439.33 400.00 437.00 C 385.13 434.67 379.77 454.85 395.00 458.00
M 591.00 414.00 
C 597.61 414.80 604.47 417.43 610.25 421.75 C 616.02 426.08 618.76 433.12 619.99 440.01 C 621.22 446.90 621.79 458.11 620.00 465.00 C 618.22 471.90 616.56 478.74 610.25 483.25 C 603.94 487.76 598.65 490.01 590.00 490.00 C 581.35 489.98 571.53 490.51 562.00 490.00 C 552.47 489.49 545.75 491.41 535.00 490.00 C 524.25 488.59 523.56 497.49 525.00 508.00 C 526.44 518.51 526.25 525.32 515.00 525.00 C 503.75 524.68 496.61 525.95 498.00 514.00 C 499.39 502.05 497.53 497.40 498.00 487.00 C 498.47 476.60 498.07 468.77 498.00 459.00 C 497.93 449.23 498.71 441.50 498.00 432.00 C 497.29 422.50 496.95 412.40 508.00 414.00 C 519.05 415.60 524.97 413.13 535.00 414.00 C 545.03 414.87 553.34 413.24 563.00 414.00 C 572.66 414.76 581.49 412.85 591.00 414.00
M 735.00 414.00 
C 753.07 416.18 770.67 428.97 771.00 449.00 C 771.32 469.03 776.36 494.02 763.75 510.75 C 751.15 527.48 727.69 526.25 708.00 526.00 C 688.31 525.75 663.40 528.67 647.75 515.25 C 632.10 501.82 635.90 476.06 636.00 458.00 C 636.10 439.94 643.95 417.97 665.02 416.02 C 686.10 414.08 713.02 411.34 735.00 414.00
M 890.00 487.00 
C 898.84 499.38 910.53 511.33 917.00 525.00
C 904.30 525.36 886.68 528.03 881.08 515.92 C 875.48 503.81 867.58 500.79 863.00 489.00
C 848.33 489.00 833.67 489.00 819.00 489.00
C 819.57 499.80 818.24 505.71 819.00 517.00 C 819.76 528.29 808.89 524.40 799.00 525.00 C 789.11 525.60 792.03 512.62 792.00 504.00 C 791.97 495.38 791.93 485.07 792.00 476.00 C 792.07 466.93 791.78 457.34 792.00 448.00 C 792.22 438.66 791.49 429.61 792.00 420.00 C 792.51 410.39 806.01 414.54 814.00 414.00 C 821.99 413.46 833.49 414.26 842.00 414.00 C 850.51 413.74 861.52 414.15 870.00 414.00 C 878.48 413.85 887.70 414.16 895.07 416.93 C 902.45 419.69 905.94 423.59 909.92 430.08 C 913.91 436.56 914.24 446.18 914.00 454.00 C 913.76 461.82 912.19 469.40 907.75 475.75 C 903.30 482.10 896.09 484.15 890.00 487.00
M 926.00 434.00 
C 924.03 430.35 924.14 420.60 926.00 417.00
C 929.70 409.84 947.23 414.97 956.00 414.00 C 964.77 413.03 979.36 413.80 989.00 414.00 C 998.64 414.20 1012.39 412.50 1022.00 414.00 C 1031.61 415.50 1046.68 407.99 1050.00 419.00 C 1053.32 430.01 1047.56 440.34 1035.00 437.00 C 1022.44 433.66 1014.17 439.50 1002.00 437.00
C 1002.26 445.86 1001.65 452.97 1002.00 462.00 C 1002.35 471.03 1001.36 478.48 1002.00 488.00 C 1002.64 497.52 1000.57 502.22 1002.00 513.00 C 1003.43 523.78 998.58 525.34 988.00 525.00 C 977.42 524.66 972.84 524.79 974.00 514.00 C 975.16 503.21 973.44 497.62 974.00 488.00 C 974.56 478.38 973.72 472.09 974.00 463.00 C 974.28 453.91 973.79 445.98 974.00 437.00
C 966.12 436.41 956.73 437.79 949.00 437.00 C 941.27 436.21 930.67 439.77 926.00 434.00
M 607.00 602.00 
C 619.23 603.11 631.77 600.89 644.00 602.00
C 647.60 602.77 646.29 612.25 645.00 614.00
C 644.78 614.30 644.30 614.78 644.00 615.00
C 639.47 618.34 630.74 614.98 625.00 616.00 C 619.26 617.02 611.07 615.61 606.00 615.00
C 598.55 614.85 590.84 613.37 585.75 607.25 C 580.66 601.12 580.73 591.94 581.00 584.00 C 581.27 576.06 581.28 567.45 587.75 561.75 C 594.23 556.05 599.96 555.95 609.01 555.01 C 618.05 554.07 628.09 555.97 638.00 555.00 C 647.91 554.03 647.63 569.52 637.00 568.00 C 626.36 566.48 618.21 568.41 608.00 568.00 C 597.79 567.59 596.60 575.11 596.00 584.00 C 595.40 592.89 597.30 599.99 607.00 602.00
M 673.00 556.00 
C 676.39 559.39 673.52 569.90 674.00 575.00 C 674.48 580.10 674.64 589.84 674.00 595.00 C 673.36 600.16 676.49 611.51 673.00 615.00
C 670.97 617.03 663.07 616.53 661.00 615.00
C 660.70 614.78 660.22 614.30 660.00 614.00
C 657.06 610.01 659.34 600.12 659.00 595.00 C 658.66 589.88 658.58 578.52 659.00 574.00 C 659.42 569.48 656.61 555.94 661.00 555.00
C 664.02 554.73 670.99 553.99 673.00 556.00
M 750.00 556.00 
C 753.61 559.61 751.44 569.81 745.00 568.00 C 738.56 566.19 732.41 569.36 726.00 568.00
C 726.00 583.33 726.00 598.67 726.00 614.00
C 724.47 617.10 714.09 617.09 712.00 615.00
C 707.50 610.50 712.58 598.49 711.00 592.00 C 709.42 585.51 712.19 574.87 711.00 568.00
C 702.67 568.00 694.33 568.00 686.00 568.00
C 686.63 564.17 684.72 559.01 687.00 556.00
C 690.57 552.43 701.54 555.47 707.00 555.00 C 712.46 554.53 723.49 554.36 729.00 555.00 C 734.51 555.64 746.34 552.34 750.00 556.00
M 772.00 556.00 
C 781.21 560.02 783.93 576.60 792.00 583.00
C 803.30 573.29 806.93 547.69 827.00 556.00
C 818.26 569.22 808.37 581.61 800.00 595.00
C 798.73 600.56 802.31 609.50 799.00 614.00
C 798.78 614.30 798.30 614.78 798.00 615.00
C 795.86 616.58 787.99 616.99 786.00 615.00
C 782.29 611.29 786.87 599.85 784.67 595.33 C 782.47 590.81 778.08 586.20 775.75 582.25 C 773.41 578.31 768.20 572.73 766.70 569.30 C 765.19 565.87 756.26 558.98 758.00 556.00
C 759.59 553.27 769.98 555.12 772.00 556.00
M 377.00 561.00 
C 375.34 561.00 373.66 561.03 372.00 561.00
C 369.14 560.95 366.60 561.01 364.00 560.00
C 365.14 558.13 368.13 559.39 370.00 559.00
C 372.66 558.89 375.34 559.00 378.00 559.00
C 393.00 559.00 408.00 559.00 423.00 559.00
C 428.04 558.51 434.27 558.00 440.00 558.00
C 452.67 558.00 465.33 558.00 478.00 558.00
C 481.73 557.64 486.59 557.00 491.00 557.00
C 518.28 557.00 544.79 556.08 572.00 556.00
C 568.73 571.91 556.17 567.23 543.00 567.00 C 529.83 566.77 515.49 565.53 502.00 565.00 C 488.50 564.47 473.62 564.79 460.00 564.00 C 446.38 563.21 432.76 562.56 419.00 562.00 C 405.24 561.44 391.05 560.61 377.00 561.00
M 560.00 579.00 
C 557.32 594.45 541.43 587.16 529.00 587.00 C 516.57 586.84 500.86 583.96 488.00 584.00
C 511.32 581.24 535.95 580.22 560.00 579.00 Z"/>
</g>
<g fill="#000000" fill-opacity="1.00" stroke="None">
<path d="
M 855.00 152.00 
C 825.37 145.86 815.74 192.54 845.33 198.67 C 874.92 204.80 883.91 157.99 855.00 152.00 Z"/>
</g>
<g fill="#000000" fill-opacity="1.00" stroke="None">
<path d="
M 675.00 210.00 
C 674.80 210.06 676.34 210.20 677.00 210.00
C 678.77 209.47 680.29 208.84 682.00 208.00
C 698.85 199.74 714.32 189.75 733.02 186.02 C 751.73 182.30 775.69 181.89 788.30 199.70 C 800.91 217.50 778.44 233.03 765.25 243.25 C 752.06 253.47 738.21 265.06 725.25 276.25 C 712.29 287.43 697.87 297.53 684.92 308.92 C 671.97 320.31 657.05 331.28 644.00 342.00
C 641.03 344.44 638.59 348.24 635.00 350.00
C 634.60 350.20 634.00 350.00 634.00 350.00
C 623.20 363.22 609.36 374.47 599.00 388.00
C 620.28 374.56 641.08 357.99 662.25 344.25 C 683.42 330.50 703.61 312.90 724.92 299.92 C 746.23 286.94 765.93 268.07 787.30 256.30 C 808.67 244.54 838.15 217.02 819.25 192.75 C 800.34 168.48 766.39 163.67 740.02 169.02 C 713.65 174.38 693.60 191.40 675.00 210.00 Z"/>
</g>
<g fill="#2AF127" fill-opacity="1.00" stroke="None">
<path d="
M 682.00 208.00 
C 680.69 209.15 680.46 210.92 679.00 212.00
C 692.17 206.83 702.87 203.45 716.93 199.93 C 730.98 196.40 743.76 193.54 758.97 199.03 C 774.18 204.52 763.94 218.18 754.75 225.75 C 745.56 233.32 738.31 241.98 730.30 250.30 C 722.30 258.62 714.45 267.03 706.25 275.25 C 698.05 283.47 689.34 291.13 681.75 299.75 C 674.17 308.37 665.63 316.26 657.75 324.75 C 649.87 333.25 641.57 341.14 634.00 350.00
C 634.00 350.00 634.60 350.20 635.00 350.00
C 637.46 346.48 641.65 343.17 644.00 342.00
C 657.05 331.28 671.97 320.31 684.92 308.92 C 697.87 297.53 712.29 287.43 725.25 276.25 C 738.21 265.06 752.06 253.47 765.25 243.25 C 778.44 233.03 800.91 217.50 788.30 199.70 C 775.69 181.89 751.73 182.30 733.02 186.02 C 714.32 189.75 698.85 199.74 682.00 208.00 Z"/>
</g>
<g fill="#94C492" fill-opacity="1.00" stroke="None">
<path d="
M 929.00 198.00 
C 929.48 197.91 930.00 198.00 930.00 198.00
C 930.83 197.41 933.40 196.73 933.00 197.00
C 934.98 196.30 935.73 193.83 936.00 192.00
C 933.51 192.60 930.07 195.40 929.00 198.00 Z"/>
</g>
<g fill="#000100" fill-opacity="1.00" stroke="None">
<path d="
M 930.00 198.00 
C 920.07 215.49 905.09 224.00 889.30 236.30 C 873.51 248.60 845.45 239.06 832.00 226.00
C 830.86 232.75 824.87 237.27 822.00 243.00
C 841.79 258.29 870.73 265.90 892.30 251.30 C 913.87 236.70 921.28 218.03 933.00 197.00
C 933.40 196.73 930.83 197.41 930.00 198.00 Z"/>
</g>
<g fill="#31F22D" fill-opacity="1.00" stroke="None">
<path d="
M 832.00 226.00 
C 845.45 239.06 873.51 248.60 889.30 236.30 C 905.09 224.00 920.07 215.49 930.00 198.00
C 930.00 198.00 929.48 197.91 929.00 198.00
C 913.26 209.42 902.05 220.47 883.22 227.22 C 864.39 233.97 847.60 217.32 834.00 206.00
C 834.41 212.95 833.98 219.66 832.00 226.00 Z"/>
</g>
<g fill="#000000" fill-opacity="1.00" stroke="None">
<path d="
M 651.00 231.00 
C 644.50 231.00 636.67 231.83 631.00 230.00
C 637.25 220.08 644.57 210.87 651.00 201.00
C 621.88 216.91 593.70 235.01 565.00 252.00
C 599.01 254.33 635.16 252.33 670.00 253.00
C 664.05 268.79 656.32 284.06 651.00 300.00
C 674.29 277.55 697.50 254.33 720.00 231.00
C 697.00 231.00 674.00 231.00 651.00 231.00 Z"/>
</g>
<g fill="#5DC153" fill-opacity="1.00" stroke="None">
<path d="
M 677.00 210.00 
C 675.70 210.77 674.29 213.33 673.00 214.00
C 675.44 213.58 676.75 212.88 679.00 212.00
C 680.46 210.92 680.69 209.15 682.00 208.00
C 680.29 208.84 678.77 209.47 677.00 210.00 Z"/>
</g>
<g fill="#31592F" fill-opacity="1.00" stroke="None">
<path d="
M 673.00 214.00 
C 674.29 213.33 675.70 210.77 677.00 210.00
C 676.34 210.20 674.80 210.06 675.00 210.00
C 673.00 211.09 671.26 213.07 670.00 215.00
C 671.24 215.48 672.00 214.17 673.00 214.00 Z"/>
</g>
<g fill="#838383" fill-opacity="1.00" stroke="None">
<path d="
M 651.00 231.00 
C 645.16 230.43 637.63 229.34 631.00 230.00
C 636.67 231.83 644.50 231.00 651.00 231.00 Z"/>
</g>
<g fill="#46F443" fill-opacity="1.00" stroke="None">
<path d="
M 482.00 270.00 
C 481.81 270.08 481.81 271.92 482.00 272.00
C 487.00 272.10 492.00 271.90 497.00 272.00
C 504.65 272.15 512.48 273.34 520.00 274.00
C 532.49 273.53 544.67 274.91 557.00 275.00 C 569.33 275.09 580.95 275.72 593.00 277.00 C 605.05 278.28 617.99 276.28 630.00 278.00 C 642.01 279.72 650.62 277.77 652.00 264.00
C 594.80 264.08 538.94 268.86 482.00 270.00 Z"/>
</g>
<g fill="#C5F7C5" fill-opacity="1.00" stroke="None">
<path d="
M 482.00 272.00 
C 481.81 271.92 481.81 270.08 482.00 270.00
C 479.80 270.44 476.45 269.04 475.00 271.00
C 476.39 272.79 479.80 271.96 482.00 272.00 Z"/>
</g>
<g fill="#000000" fill-opacity="1.00" stroke="None">
<path d="
M 714.00 356.00 
C 727.31 353.14 741.11 349.01 753.98 344.98 C 766.84 340.94 778.59 337.22 790.92 331.92 C 803.26 326.63 811.90 323.01 822.25 313.25 C 832.60 303.48 821.97 287.35 810.69 283.31 C 799.42 279.27 787.65 267.14 777.23 275.23 C 766.81 283.32 758.20 288.04 748.00 296.00
C 755.29 302.32 773.42 297.93 780.30 304.70 C 787.17 311.47 769.22 318.47 763.23 323.23 C 757.24 327.99 745.69 334.54 738.70 339.70 C 731.70 344.85 720.58 350.04 714.00 356.00 Z"/>
</g>
<g fill="#E7FFE7" fill-opacity="1.00" stroke="None">
<path d="
M 520.00 274.00 
C 512.48 273.34 504.65 272.15 497.00 272.00
C 500.44 272.85 503.50 275.74 508.00 275.00 C 512.50 274.26 516.23 274.36 520.00 274.00 Z"/>
</g>
<g fill="#E2FFDF" fill-opacity="1.00" stroke="None">
<path d="
M 592.00 292.00 
C 597.76 291.61 604.72 290.51 610.00 290.00
C 606.75 289.69 603.58 289.43 600.00 289.00 C 596.43 288.58 593.63 291.57 592.00 292.00 Z"/>
</g>
<g fill="#4DF349" fill-opacity="1.00" stroke="None">
<path d="
M 610.00 290.00 
C 604.72 290.51 597.76 291.61 592.00 292.00
C 577.93 292.96 563.87 292.74 550.00 294.00
C 549.80 294.10 549.84 295.94 550.00 296.00
C 577.79 298.53 605.85 299.94 634.00 301.00
C 634.52 296.72 638.74 293.63 638.00 289.00
C 628.44 287.74 619.40 290.88 610.00 290.00 Z"/>
</g>
<g fill="#9EEE9E" fill-opacity="1.00" stroke="None">
<path d="
M 550.00 296.00 
C 549.84 295.94 549.80 294.10 550.00 294.00
C 547.80 294.44 544.45 293.04 543.00 295.00
C 544.40 296.88 547.78 295.83 550.00 296.00 Z"/>
</g>
<g fill="#4DB248" fill-opacity="1.00" stroke="None">
<path d="
M 635.00 350.00 
C 638.59 348.24 641.03 344.44 644.00 342.00
C 641.65 343.17 637.46 346.48 635.00 350.00 Z"/>
</g>
<g fill="#000000" fill-opacity="1.00" stroke="None">
<path d="
M 390.00 479.00 
C 406.41 479.00 424.45 477.78 440.00 480.00
C 449.53 480.36 454.98 489.65 450.30 498.30 C 445.62 506.95 434.73 502.49 426.00 503.00 C 417.27 503.51 405.37 503.73 396.00 503.00 C 386.63 502.27 376.75 505.62 367.00 503.00 C 357.25 500.38 353.89 516.90 358.71 523.29 C 363.52 529.69 377.89 523.29 386.00 525.00 C 394.11 526.71 407.25 524.18 416.00 525.00 C 424.75 525.82 436.31 524.59 445.00 525.00 C 453.69 525.41 462.45 523.97 469.25 519.25 C 476.05 514.53 477.85 506.48 478.00 499.00
C 478.09 494.36 478.18 489.64 478.00 485.00
C 477.25 465.27 461.90 459.00 444.00 459.00
C 428.27 459.00 409.76 461.06 395.00 458.00
C 379.77 454.85 385.13 434.67 400.00 437.00 C 414.87 439.33 429.34 435.56 444.00 437.00 C 458.66 438.44 476.20 440.17 474.00 423.00 C 471.80 405.83 452.01 415.90 439.00 414.00 C 425.99 412.10 407.36 414.67 395.00 414.00 C 382.64 413.33 369.84 415.98 362.92 425.92 C 356.01 435.87 357.83 452.86 361.08 463.92 C 364.33 474.99 380.15 479.00 390.00 479.00 Z"/>
</g>
<g fill="#000000" fill-opacity="1.00" stroke="None">
<path d="
M 591.00 414.00 
C 581.49 412.85 572.66 414.76 563.00 414.00 C 553.34 413.24 545.03 414.87 535.00 414.00 C 524.97 413.13 519.05 415.60 508.00 414.00 C 496.95 412.40 497.29 422.50 498.00 432.00 C 498.71 441.50 497.93 449.23 498.00 459.00 C 498.07 468.77 498.47 476.60 498.00 487.00 C 497.53 497.40 499.39 502.05 498.00 514.00 C 496.61 525.95 503.75 524.68 515.00 525.00 C 526.25 525.32 526.44 518.51 525.00 508.00 C 523.56 497.49 524.25 488.59 535.00 490.00 C 545.75 491.41 552.47 489.49 562.00 490.00 C 571.53 490.51 581.35 489.98 590.00 490.00 C 598.65 490.01 603.94 487.76 610.25 483.25 C 616.56 478.74 618.22 471.90 620.00 465.00 C 621.79 458.11 621.22 446.90 619.99 440.01 C 618.76 433.12 616.02 426.08 610.25 421.75 C 604.47 417.43 597.61 414.80 591.00 414.00
M 582.00 468.00 
C 576.85 468.92 569.82 469.63 564.00 469.00 C 558.18 468.37 549.47 470.11 544.00 469.00 C 538.53 467.89 528.64 471.79 525.00 468.00
C 524.61 463.75 524.56 455.98 525.00 452.00 C 525.44 448.02 522.97 439.12 526.00 437.00
C 529.99 434.20 538.90 438.19 544.00 437.00 C 549.10 435.81 557.61 437.55 563.00 437.00 C 568.39 436.45 575.86 437.20 581.00 437.00 C 586.14 436.80 590.86 439.21 592.92 444.08 C 594.97 448.95 593.85 454.60 593.02 460.02 C 592.19 465.45 587.13 467.65 582.00 468.00 Z"/>
</g>
<g fill="#000000" fill-opacity="1.00" stroke="None">
<path d="
M 735.00 414.00 
C 713.02 411.34 686.10 414.08 665.02 416.02 C 643.95 417.97 636.10 439.94 636.00 458.00 C 635.90 476.06 632.10 501.82 647.75 515.25 C 663.40 528.67 688.31 525.75 708.00 526.00 C 727.69 526.25 751.15 527.48 763.75 510.75 C 776.36 494.02 771.32 469.03 771.00 449.00 C 770.67 428.97 753.07 416.18 735.00 414.00
M 720.00 437.00 
C 735.22 437.00 743.69 443.36 744.00 459.00
C 744.80 465.64 744.79 473.42 744.00 480.00
C 743.70 495.19 733.95 505.44 718.00 503.00 C 702.05 500.56 686.52 507.83 672.31 499.69 C 658.10 491.56 664.76 475.70 663.00 460.00 C 661.24 444.30 675.37 437.00 690.00 437.00
C 699.43 436.09 710.64 436.09 720.00 437.00 Z"/>
</g>
<g fill="#000000" fill-opacity="1.00" stroke="None">
<path d="
M 890.00 487.00 
C 896.09 484.15 903.30 482.10 907.75 475.75 C 912.19 469.40 913.76 461.82 914.00 454.00 C 914.24 446.18 913.91 436.56 909.92 430.08 C 905.94 423.59 902.45 419.69 895.07 416.93 C 887.70 414.16 878.48 413.85 870.00 414.00 C 861.52 414.15 850.51 413.74 842.00 414.00 C 833.49 414.26 821.99 413.46 814.00 414.00 C 806.01 414.54 792.51 410.39 792.00 420.00 C 791.49 429.61 792.22 438.66 792.00 448.00 C 791.78 457.34 792.07 466.93 792.00 476.00 C 791.93 485.07 791.97 495.38 792.00 504.00 C 792.03 512.62 789.11 525.60 799.00 525.00 C 808.89 524.40 819.76 528.29 819.00 517.00 C 818.24 505.71 819.57 499.80 819.00 489.00
C 833.67 489.00 848.33 489.00 863.00 489.00
C 867.58 500.79 875.48 503.81 881.08 515.92 C 886.68 528.03 904.30 525.36 917.00 525.00
C 910.53 511.33 898.84 499.38 890.00 487.00
M 819.00 468.00 
C 819.00 457.67 819.00 447.33 819.00 437.00
C 836.62 436.23 856.62 438.03 874.00 437.00 C 891.38 435.97 892.45 467.87 874.99 467.99 C 857.53 468.12 836.76 467.91 819.00 468.00 Z"/>
</g>
<g fill="#000000" fill-opacity="1.00" stroke="None">
<path d="
M 926.00 417.00 
C 924.96 420.09 924.91 430.93 926.00 434.00
C 930.67 439.77 941.27 436.21 949.00 437.00 C 956.73 437.79 966.12 436.41 974.00 437.00
C 973.79 445.98 974.28 453.91 974.00 463.00 C 973.72 472.09 974.56 478.38 974.00 488.00 C 973.44 497.62 975.16 503.21 974.00 514.00 C 972.84 524.79 977.42 524.66 988.00 525.00 C 998.58 525.34 1003.43 523.78 1002.00 513.00 C 1000.57 502.22 1002.64 497.52 1002.00 488.00 C 1001.36 478.48 1002.35 471.03 1002.00 462.00 C 1001.65 452.97 1002.26 445.86 1002.00 437.00
C 1014.17 439.50 1022.44 433.66 1035.00 437.00 C 1047.56 440.34 1053.32 430.01 1050.00 419.00 C 1046.68 407.99 1031.61 415.50 1022.00 414.00 C 1012.39 412.50 998.64 414.20 989.00 414.00 C 979.36 413.80 964.77 413.03 956.00 414.00 C 947.23 414.97 929.70 409.84 926.00 417.00 Z"/>
</g>
<g fill="#898989" fill-opacity="1.00" stroke="None">
<path d="
M 926.00 434.00 
C 924.91 430.93 924.96 420.09 926.00 417.00
C 924.14 420.60 924.03 430.35 926.00 434.00 Z"/>
</g>
<g fill="#606060" fill-opacity="1.00" stroke="None">
<path d="
M 690.00 437.00 
C 700.00 437.00 710.00 437.00 720.00 437.00
C 710.64 436.09 699.43 436.09 690.00 437.00 Z"/>
</g>
<g fill="#A9A9A9" fill-opacity="1.00" stroke="None">
<path d="
M 525.00 468.00 
C 525.00 468.05 526.00 468.00 526.00 468.00
C 526.93 457.75 525.31 447.27 526.00 437.00
C 522.97 439.12 525.44 448.02 525.00 452.00 C 524.56 455.98 524.61 463.75 525.00 468.00 Z"/>
</g>
<g fill="#FDFDFD" fill-opacity="1.00" stroke="None">
<path d="
M 526.00 468.00 
C 544.52 468.00 563.53 469.26 582.00 468.00
C 587.13 467.65 592.19 465.45 593.02 460.02 C 593.85 454.60 594.97 448.95 592.92 444.08 C 590.86 439.21 586.14 436.80 581.00 437.00 C 575.86 437.20 568.39 436.45 563.00 437.00 C 557.61 437.55 549.10 435.81 544.00 437.00 C 538.90 438.19 529.99 434.20 526.00 437.00
C 525.31 447.27 526.93 457.75 526.00 468.00 Z"/>
</g>
<g fill="#FCFCFC" fill-opacity="1.00" stroke="None">
<path d="
M 744.00 480.00 
C 744.14 473.02 744.14 465.98 744.00 459.00
C 743.69 443.36 735.22 437.00 720.00 437.00
C 710.00 437.00 700.00 437.00 690.00 437.00
C 675.37 437.00 661.24 444.30 663.00 460.00 C 664.76 475.70 658.10 491.56 672.31 499.69 C 686.52 507.83 702.05 500.56 718.00 503.00 C 733.95 505.44 743.70 495.19 744.00 480.00 Z"/>
</g>
<g fill="#FBFBFB" fill-opacity="1.00" stroke="None">
<path d="
M 819.00 468.00 
C 836.76 467.91 857.53 468.12 874.99 467.99 C 892.45 467.87 891.38 435.97 874.00 437.00 C 856.62 438.03 836.62 436.23 819.00 437.00
C 819.00 447.33 819.00 457.67 819.00 468.00 Z"/>
</g>
<g fill="#828383" fill-opacity="1.00" stroke="None">
<path d="
M 444.00 459.00 
C 428.56 457.51 411.11 459.46 395.00 458.00
C 409.76 461.06 428.27 459.00 444.00 459.00 Z"/>
</g>
<g fill="#646464" fill-opacity="1.00" stroke="None">
<path d="
M 744.00 480.00 
C 744.79 473.42 744.80 465.64 744.00 459.00
C 744.14 465.98 744.14 473.02 744.00 480.00 Z"/>
</g>
<g fill="#696969" fill-opacity="1.00" stroke="None">
<path d="
M 582.00 468.00 
C 563.53 469.26 544.52 468.00 526.00 468.00
C 526.00 468.00 525.00 468.05 525.00 468.00
C 528.64 471.79 538.53 467.89 544.00 469.00 C 549.47 470.11 558.18 468.37 564.00 469.00 C 569.82 469.63 576.85 468.92 582.00 468.00 Z"/>
</g>
<g fill="#6D6D6D" fill-opacity="1.00" stroke="None">
<path d="
M 440.00 480.00 
C 424.45 477.78 406.41 479.00 390.00 479.00
C 405.81 480.53 423.42 479.37 440.00 480.00 Z"/>
</g>
<g fill="#605F60" fill-opacity="1.00" stroke="None">
<path d="
M 478.00 499.00 
C 478.54 494.53 478.65 489.55 478.00 485.00
C 478.18 489.64 478.09 494.36 478.00 499.00 Z"/>
</g>
<g fill="#000000" fill-opacity="1.00" stroke="None">
<path d="
M 606.00 615.00 
C 618.12 615.24 632.01 616.73 644.00 615.00
C 644.30 614.78 644.78 614.30 645.00 614.00
C 645.44 610.91 645.66 605.24 644.00 603.00
C 632.57 604.04 617.55 604.19 607.00 602.00
C 597.30 599.99 595.40 592.89 596.00 584.00 C 596.60 575.11 597.79 567.59 608.00 568.00 C 618.21 568.41 626.36 566.48 637.00 568.00 C 647.63 569.52 647.91 554.03 638.00 555.00 C 628.09 555.97 618.05 554.07 609.01 555.01 C 599.96 555.95 594.23 556.05 587.75 561.75 C 581.28 567.45 581.27 576.06 581.00 584.00 C 580.73 591.94 580.66 601.12 585.75 607.25 C 590.84 613.37 598.55 614.85 606.00 615.00 Z"/>
</g>
<g fill="#838383" fill-opacity="1.00" stroke="None">
<path d="
M 660.00 614.00 
C 658.82 605.83 659.24 593.00 660.00 585.00 C 660.76 577.00 656.53 562.02 661.00 556.00
C 661.24 555.68 661.00 555.00 661.00 555.00
C 656.61 555.94 659.42 569.48 659.00 574.00 C 658.58 578.52 658.66 589.88 659.00 595.00 C 659.34 600.12 657.06 610.01 660.00 614.00 Z"/>
</g>
<g fill="#5C5C5C" fill-opacity="1.00" stroke="None">
<path d="
M 661.00 556.00 
C 663.64 556.24 670.92 554.54 673.00 556.00
C 670.99 553.99 664.02 554.73 661.00 555.00
C 661.00 555.00 661.24 555.68 661.00 556.00 Z"/>
</g>
<g fill="#646464" fill-opacity="1.00" stroke="None">
<path d="
M 687.00 556.00 
C 691.10 553.13 702.74 556.78 708.00 556.00 C 713.26 555.22 723.74 555.22 729.00 556.00 C 734.26 556.78 745.90 553.13 750.00 556.00
C 746.34 552.34 734.51 555.64 729.00 555.00 C 723.49 554.36 712.46 554.53 707.00 555.00 C 701.54 555.47 690.57 552.43 687.00 556.00 Z"/>
</g>
<g fill="#5D5D5D" fill-opacity="1.00" stroke="None">
<path d="
M 758.00 556.00 
C 762.42 556.89 767.66 554.81 772.00 556.00
C 769.98 555.12 759.59 553.27 758.00 556.00 Z"/>
</g>
<g fill="#000000" fill-opacity="1.00" stroke="None">
<path d="
M 772.00 556.00 
C 767.66 554.81 762.42 556.89 758.00 556.00
C 756.26 558.98 765.19 565.87 766.70 569.30 C 768.20 572.73 773.41 578.31 775.75 582.25 C 778.08 586.20 782.47 590.81 784.67 595.33 C 786.87 599.85 782.29 611.29 786.00 615.00
C 787.59 616.11 795.97 615.29 798.00 615.00
C 798.30 614.78 798.78 614.30 799.00 614.00
C 799.91 607.71 797.89 600.58 800.00 595.00
C 808.37 581.61 818.26 569.22 827.00 556.00
C 806.93 547.69 803.30 573.29 792.00 583.00
C 783.93 576.60 781.21 560.02 772.00 556.00 Z"/>
</g>
<g fill="#030403" fill-opacity="1.00" stroke="None">
<path d="
M 491.00 557.00 
C 487.27 557.36 482.41 558.00 478.00 558.00
C 465.33 558.00 452.67 558.00 440.00 558.00
C 434.96 558.49 428.73 559.00 423.00 559.00
C 408.00 559.00 393.00 559.00 378.00 559.00
C 377.54 559.21 377.31 560.82 377.00 561.00
C 391.05 560.61 405.24 561.44 419.00 562.00 C 432.76 562.56 446.38 563.21 460.00 564.00 C 473.62 564.79 488.50 564.47 502.00 565.00 C 515.49 565.53 529.83 566.77 543.00 567.00 C 556.17 567.23 568.73 571.91 572.00 556.00
C 544.79 556.08 518.28 557.00 491.00 557.00 Z"/>
</g>
<g fill="#000000" fill-opacity="1.00" stroke="None">
<path d="
M 660.00 614.00 
C 660.22 614.30 660.70 614.78 661.00 615.00
C 663.03 615.29 671.41 616.11 673.00 615.00
C 676.49 611.51 673.36 600.16 674.00 595.00 C 674.64 589.84 674.48 580.10 674.00 575.00 C 673.52 569.90 676.39 559.39 673.00 556.00
C 670.92 554.54 663.64 556.24 661.00 556.00
C 656.53 562.02 660.76 577.00 660.00 585.00 C 659.24 593.00 658.82 605.83 660.00 614.00 Z"/>
</g>
<g fill="#000000" fill-opacity="1.00" stroke="None">
<path d="
M 712.00 615.00 
C 713.50 616.05 724.91 615.54 726.00 614.00
C 726.00 598.67 726.00 583.33 726.00 568.00
C 732.41 569.36 738.56 566.19 745.00 568.00 C 751.44 569.81 753.61 559.61 750.00 556.00
C 745.90 553.13 734.26 556.78 729.00 556.00 C 723.74 555.22 713.26 555.22 708.00 556.00 C 702.74 556.78 691.10 553.13 687.00 556.00
C 684.72 559.01 686.63 564.17 686.00 568.00
C 694.33 568.00 702.67 568.00 711.00 568.00
C 712.19 574.87 709.42 585.51 711.00 592.00 C 712.58 598.49 707.50 610.50 712.00 615.00 Z"/>
</g>
<g fill="#818181" fill-opacity="1.00" stroke="None">
<path d="
M 478.00 558.00 
C 482.41 558.00 487.27 557.36 491.00 557.00
C 486.59 557.00 481.73 557.64 478.00 558.00 Z"/>
</g>
<g fill="#7B7B7B" fill-opacity="1.00" stroke="None">
<path d="
M 423.00 559.00 
C 428.73 559.00 434.96 558.49 440.00 558.00
C 434.27 558.00 428.04 558.51 423.00 559.00 Z"/>
</g>
<g fill="#B3B4B3" fill-opacity="1.00" stroke="None">
<path d="
M 372.00 561.00 
C 371.54 560.85 370.39 559.13 370.00 559.00
C 368.13 559.39 365.14 558.13 364.00 560.00
C 366.60 561.01 369.14 560.95 372.00 561.00 Z"/>
</g>
<g fill="#868787" fill-opacity="1.00" stroke="None">
<path d="
M 372.00 561.00 
C 373.66 561.03 375.34 561.00 377.00 561.00
C 377.31 560.82 377.54 559.21 378.00 559.00
C 375.34 559.00 372.66 558.89 370.00 559.00
C 370.39 559.13 371.54 560.85 372.00 561.00 Z"/>
</g>
<g fill="#070807" fill-opacity="1.00" stroke="None">
<path d="
M 560.00 579.00 
C 535.95 580.22 511.32 581.24 488.00 584.00
C 500.86 583.96 516.57 586.84 529.00 587.00 C 541.43 587.16 557.32 594.45 560.00 579.00 Z"/>
</g>
<g fill="#929294" fill-opacity="1.00" stroke="None">
<path d="
M 799.00 614.00 
C 802.31 609.50 798.73 600.56 800.00 595.00
C 797.89 600.58 799.91 607.71 799.00 614.00 Z"/>
</g>
<g fill="#6B6C6C" fill-opacity="1.00" stroke="None">
<path d="
M 644.00 603.00 
C 643.76 602.68 644.00 602.00 644.00 602.00
C 631.77 600.89 619.23 603.11 607.00 602.00
C 617.55 604.19 632.57 604.04 644.00 603.00 Z"/>
</g>
<g fill="#C6C6C6" fill-opacity="1.00" stroke="None">
<path d="
M 644.00 603.00 
C 645.66 605.24 645.44 610.91 645.00 614.00
C 646.29 612.25 647.60 602.77 644.00 602.00
C 644.00 602.00 643.76 602.68 644.00 603.00 Z"/>
</g>
<g fill="#8E8F8F" fill-opacity="1.00" stroke="None">
<path d="
M 712.00 615.00 
C 714.09 617.09 724.47 617.10 726.00 614.00
C 724.91 615.54 713.50 616.05 712.00 615.00 Z"/>
</g>
<g fill="#868786" fill-opacity="1.00" stroke="None">
<path d="
M 644.00 615.00 
C 632.01 616.73 618.12 615.24 606.00 615.00
C 611.07 615.61 619.26 617.02 625.00 616.00 C 630.74 614.98 639.47 618.34 644.00 615.00 Z"/>
</g>
<g fill="#8C8C8C" fill-opacity="1.00" stroke="None">
<path d="
M 673.00 615.00 
C 671.41 616.11 663.03 615.29 661.00 615.00
C 663.07 616.53 670.97 617.03 673.00 615.00 Z"/>
</g>
<g fill="#909190" fill-opacity="1.00" stroke="None">
<path d="
M 798.00 615.00 
C 795.97 615.29 787.59 616.11 786.00 615.00
C 787.99 616.99 795.86 616.58 798.00 615.00 Z"/>
</g>
</svg>